<mxfile host="app.diagrams.net" agent="Mozilla/5.0 (Windows NT 10.0; Win64; x64) AppleWebKit/537.36 (KHTML, like Gecko) Chrome/127.0.0.0 Safari/537.36 Edg/127.0.0.0" version="24.7.6">
  <diagram id="C5RBs43oDa-KdzZeNtuy" name="Page-1">
    <mxGraphModel dx="3052" dy="3544" grid="1" gridSize="10" guides="1" tooltips="1" connect="1" arrows="1" fold="1" page="1" pageScale="1" pageWidth="827" pageHeight="1169" math="0" shadow="0">
      <root>
        <mxCell id="WIyWlLk6GJQsqaUBKTNV-0" />
        <mxCell id="WIyWlLk6GJQsqaUBKTNV-1" parent="WIyWlLk6GJQsqaUBKTNV-0" />
        <mxCell id="Trn8S8U_fDd8YShinlyO-1" value="홈페이지" style="rounded=1;whiteSpace=wrap;html=1;strokeColor=#000000;align=center;verticalAlign=middle;fontFamily=Helvetica;fontSize=12;fontColor=default;labelBackgroundColor=default;fillColor=default;arcSize=50;" vertex="1" parent="WIyWlLk6GJQsqaUBKTNV-1">
          <mxGeometry x="1141" y="-1210" width="120" height="60" as="geometry" />
        </mxCell>
        <mxCell id="Trn8S8U_fDd8YShinlyO-145" style="edgeStyle=orthogonalEdgeStyle;rounded=0;orthogonalLoop=1;jettySize=auto;html=1;entryX=0.5;entryY=0;entryDx=0;entryDy=0;fontFamily=Helvetica;fontSize=12;fontColor=default;labelBackgroundColor=default;" edge="1" parent="WIyWlLk6GJQsqaUBKTNV-1" target="Trn8S8U_fDd8YShinlyO-4">
          <mxGeometry relative="1" as="geometry">
            <mxPoint x="830" y="-600" as="sourcePoint" />
          </mxGeometry>
        </mxCell>
        <mxCell id="Trn8S8U_fDd8YShinlyO-146" style="edgeStyle=orthogonalEdgeStyle;rounded=0;orthogonalLoop=1;jettySize=auto;html=1;entryX=0.5;entryY=0;entryDx=0;entryDy=0;fontFamily=Helvetica;fontSize=12;fontColor=default;labelBackgroundColor=default;" edge="1" parent="WIyWlLk6GJQsqaUBKTNV-1" target="Trn8S8U_fDd8YShinlyO-5">
          <mxGeometry relative="1" as="geometry">
            <mxPoint x="840" y="-600" as="sourcePoint" />
            <Array as="points">
              <mxPoint x="1200" y="-600" />
              <mxPoint x="1200" y="80" />
              <mxPoint x="1030" y="80" />
            </Array>
          </mxGeometry>
        </mxCell>
        <mxCell id="Trn8S8U_fDd8YShinlyO-250" style="edgeStyle=orthogonalEdgeStyle;rounded=0;orthogonalLoop=1;jettySize=auto;html=1;entryX=0.5;entryY=0;entryDx=0;entryDy=0;fontFamily=Helvetica;fontSize=12;fontColor=default;labelBackgroundColor=default;" edge="1" parent="WIyWlLk6GJQsqaUBKTNV-1" target="Trn8S8U_fDd8YShinlyO-244">
          <mxGeometry relative="1" as="geometry">
            <mxPoint x="830" y="-600" as="sourcePoint" />
            <Array as="points">
              <mxPoint x="1201" y="80" />
              <mxPoint x="920" y="80" />
            </Array>
          </mxGeometry>
        </mxCell>
        <mxCell id="Trn8S8U_fDd8YShinlyO-2" value="관리자 계정&lt;div&gt;ID : Master&lt;/div&gt;&lt;div&gt;PW : Master&lt;/div&gt;&lt;div&gt;쿠폰&lt;/div&gt;&lt;div&gt;DISCOUNT10&lt;/div&gt;" style="shape=hexagon;perimeter=hexagonPerimeter2;whiteSpace=wrap;html=1;fixedSize=1;strokeColor=default;align=center;verticalAlign=middle;fontFamily=Helvetica;fontSize=12;fontColor=default;labelBackgroundColor=default;fillColor=default;" vertex="1" parent="WIyWlLk6GJQsqaUBKTNV-1">
          <mxGeometry x="1141" y="-1120" width="120" height="80" as="geometry" />
        </mxCell>
        <mxCell id="Trn8S8U_fDd8YShinlyO-3" value="" style="endArrow=classic;html=1;rounded=0;fontFamily=Helvetica;fontSize=12;fontColor=default;labelBackgroundColor=default;exitX=0.5;exitY=1;exitDx=0;exitDy=0;verticalAlign=middle;" edge="1" parent="WIyWlLk6GJQsqaUBKTNV-1" source="Trn8S8U_fDd8YShinlyO-1" target="Trn8S8U_fDd8YShinlyO-2">
          <mxGeometry width="50" height="50" relative="1" as="geometry">
            <mxPoint x="1611" y="-810" as="sourcePoint" />
            <mxPoint x="1661" y="-860" as="targetPoint" />
          </mxGeometry>
        </mxCell>
        <mxCell id="Trn8S8U_fDd8YShinlyO-4" value="전체도서 출력" style="shape=parallelogram;perimeter=parallelogramPerimeter;whiteSpace=wrap;html=1;fixedSize=1;strokeColor=default;align=center;verticalAlign=middle;fontFamily=Helvetica;fontSize=12;fontColor=default;labelBackgroundColor=default;fillColor=default;" vertex="1" parent="WIyWlLk6GJQsqaUBKTNV-1">
          <mxGeometry x="1141" y="250" width="120" height="60" as="geometry" />
        </mxCell>
        <mxCell id="Trn8S8U_fDd8YShinlyO-5" value="로고 출력" style="shape=parallelogram;perimeter=parallelogramPerimeter;whiteSpace=wrap;html=1;fixedSize=1;strokeColor=default;align=center;verticalAlign=middle;fontFamily=Helvetica;fontSize=12;fontColor=default;labelBackgroundColor=default;fillColor=default;" vertex="1" parent="WIyWlLk6GJQsqaUBKTNV-1">
          <mxGeometry x="970" y="250" width="120" height="60" as="geometry" />
        </mxCell>
        <mxCell id="Trn8S8U_fDd8YShinlyO-12" value="메인배너 출력" style="shape=parallelogram;perimeter=parallelogramPerimeter;whiteSpace=wrap;html=1;fixedSize=1;strokeColor=default;align=center;verticalAlign=middle;fontFamily=Helvetica;fontSize=12;fontColor=default;labelBackgroundColor=default;fillColor=default;" vertex="1" parent="WIyWlLk6GJQsqaUBKTNV-1">
          <mxGeometry x="1596" y="250" width="120" height="60" as="geometry" />
        </mxCell>
        <mxCell id="Trn8S8U_fDd8YShinlyO-266" value="" style="edgeStyle=orthogonalEdgeStyle;rounded=0;orthogonalLoop=1;jettySize=auto;html=1;fontFamily=Helvetica;fontSize=12;fontColor=default;labelBackgroundColor=default;entryX=0.5;entryY=0;entryDx=0;entryDy=0;" edge="1" parent="WIyWlLk6GJQsqaUBKTNV-1" source="Trn8S8U_fDd8YShinlyO-13" target="Trn8S8U_fDd8YShinlyO-267">
          <mxGeometry relative="1" as="geometry">
            <mxPoint x="1656" y="500" as="targetPoint" />
          </mxGeometry>
        </mxCell>
        <mxCell id="Trn8S8U_fDd8YShinlyO-13" value="5권의 배너&lt;div&gt;4초마다 자동으로&lt;/div&gt;&lt;div&gt;순차 전환&lt;/div&gt;" style="shape=document;whiteSpace=wrap;html=1;boundedLbl=1;strokeColor=default;align=center;verticalAlign=middle;fontFamily=Helvetica;fontSize=12;fontColor=default;labelBackgroundColor=default;fillColor=default;" vertex="1" parent="WIyWlLk6GJQsqaUBKTNV-1">
          <mxGeometry x="1596" y="360" width="120" height="80" as="geometry" />
        </mxCell>
        <mxCell id="Trn8S8U_fDd8YShinlyO-14" value="" style="endArrow=classic;html=1;rounded=0;fontFamily=Helvetica;fontSize=12;fontColor=default;labelBackgroundColor=default;exitX=0.5;exitY=1;exitDx=0;exitDy=0;entryX=0.5;entryY=0;entryDx=0;entryDy=0;verticalAlign=middle;" edge="1" parent="WIyWlLk6GJQsqaUBKTNV-1" source="Trn8S8U_fDd8YShinlyO-12" target="Trn8S8U_fDd8YShinlyO-13">
          <mxGeometry width="50" height="50" relative="1" as="geometry">
            <mxPoint x="2026" y="420" as="sourcePoint" />
            <mxPoint x="2076" y="370" as="targetPoint" />
          </mxGeometry>
        </mxCell>
        <mxCell id="Trn8S8U_fDd8YShinlyO-24" value="" style="edgeStyle=orthogonalEdgeStyle;rounded=0;orthogonalLoop=1;jettySize=auto;html=1;fontFamily=Helvetica;fontSize=12;fontColor=default;labelBackgroundColor=default;" edge="1" parent="WIyWlLk6GJQsqaUBKTNV-1" source="Trn8S8U_fDd8YShinlyO-16" target="Trn8S8U_fDd8YShinlyO-18">
          <mxGeometry relative="1" as="geometry" />
        </mxCell>
        <mxCell id="Trn8S8U_fDd8YShinlyO-16" value="메뉴 클릭" style="rounded=0;whiteSpace=wrap;html=1;strokeColor=default;align=center;verticalAlign=middle;fontFamily=Helvetica;fontSize=12;fontColor=default;labelBackgroundColor=default;fillColor=default;" vertex="1" parent="WIyWlLk6GJQsqaUBKTNV-1">
          <mxGeometry x="1131" y="350" width="120" height="60" as="geometry" />
        </mxCell>
        <mxCell id="Trn8S8U_fDd8YShinlyO-17" value="" style="endArrow=classic;html=1;rounded=0;fontFamily=Helvetica;fontSize=12;fontColor=default;labelBackgroundColor=default;exitX=0.417;exitY=1;exitDx=0;exitDy=0;exitPerimeter=0;entryX=0.5;entryY=0;entryDx=0;entryDy=0;verticalAlign=middle;" edge="1" parent="WIyWlLk6GJQsqaUBKTNV-1" source="Trn8S8U_fDd8YShinlyO-4" target="Trn8S8U_fDd8YShinlyO-16">
          <mxGeometry width="50" height="50" relative="1" as="geometry">
            <mxPoint x="1901" y="460" as="sourcePoint" />
            <mxPoint x="1951" y="410" as="targetPoint" />
          </mxGeometry>
        </mxCell>
        <mxCell id="Trn8S8U_fDd8YShinlyO-18" value="드롭다운&lt;div&gt;메뉴가&lt;/div&gt;&lt;div&gt;있는가&lt;/div&gt;" style="rhombus;whiteSpace=wrap;html=1;strokeColor=default;align=center;verticalAlign=middle;fontFamily=Helvetica;fontSize=12;fontColor=default;labelBackgroundColor=default;fillColor=default;" vertex="1" parent="WIyWlLk6GJQsqaUBKTNV-1">
          <mxGeometry x="1126" y="450" width="130" height="80" as="geometry" />
        </mxCell>
        <mxCell id="Trn8S8U_fDd8YShinlyO-19" value="" style="endArrow=classic;html=1;rounded=0;fontFamily=Helvetica;fontSize=12;fontColor=default;labelBackgroundColor=default;exitX=0.5;exitY=1;exitDx=0;exitDy=0;entryX=0.5;entryY=0;entryDx=0;entryDy=0;" edge="1" parent="WIyWlLk6GJQsqaUBKTNV-1" source="Trn8S8U_fDd8YShinlyO-16" target="Trn8S8U_fDd8YShinlyO-18">
          <mxGeometry width="50" height="50" relative="1" as="geometry">
            <mxPoint x="1901" y="460" as="sourcePoint" />
            <mxPoint x="1951" y="410" as="targetPoint" />
          </mxGeometry>
        </mxCell>
        <mxCell id="Trn8S8U_fDd8YShinlyO-20" value="드롭다운&lt;div&gt;메뉴 출력&lt;/div&gt;" style="shape=parallelogram;perimeter=parallelogramPerimeter;whiteSpace=wrap;html=1;fixedSize=1;strokeColor=default;align=center;verticalAlign=middle;fontFamily=Helvetica;fontSize=12;fontColor=default;labelBackgroundColor=default;fillColor=default;" vertex="1" parent="WIyWlLk6GJQsqaUBKTNV-1">
          <mxGeometry x="1331" y="460" width="120" height="60" as="geometry" />
        </mxCell>
        <mxCell id="Trn8S8U_fDd8YShinlyO-21" value="" style="endArrow=classic;html=1;rounded=0;fontFamily=Helvetica;fontSize=12;fontColor=default;labelBackgroundColor=default;exitX=1;exitY=0.5;exitDx=0;exitDy=0;entryX=0;entryY=0.5;entryDx=0;entryDy=0;" edge="1" parent="WIyWlLk6GJQsqaUBKTNV-1" source="Trn8S8U_fDd8YShinlyO-18" target="Trn8S8U_fDd8YShinlyO-20">
          <mxGeometry relative="1" as="geometry">
            <mxPoint x="1881" y="430" as="sourcePoint" />
            <mxPoint x="1981" y="430" as="targetPoint" />
          </mxGeometry>
        </mxCell>
        <mxCell id="Trn8S8U_fDd8YShinlyO-22" value="Yes" style="edgeLabel;resizable=0;html=1;;align=center;verticalAlign=middle;strokeColor=default;fontFamily=Helvetica;fontSize=12;fontColor=default;labelBackgroundColor=default;fillColor=default;" connectable="0" vertex="1" parent="Trn8S8U_fDd8YShinlyO-21">
          <mxGeometry relative="1" as="geometry" />
        </mxCell>
        <mxCell id="Trn8S8U_fDd8YShinlyO-30" style="edgeStyle=orthogonalEdgeStyle;rounded=0;orthogonalLoop=1;jettySize=auto;html=1;exitX=0;exitY=0.5;exitDx=0;exitDy=0;entryX=1;entryY=0.5;entryDx=0;entryDy=0;fontFamily=Helvetica;fontSize=12;fontColor=default;labelBackgroundColor=default;" edge="1" parent="WIyWlLk6GJQsqaUBKTNV-1" source="Trn8S8U_fDd8YShinlyO-23" target="Trn8S8U_fDd8YShinlyO-26">
          <mxGeometry relative="1" as="geometry" />
        </mxCell>
        <mxCell id="Trn8S8U_fDd8YShinlyO-23" value="세부메뉴 클릭" style="rounded=0;whiteSpace=wrap;html=1;strokeColor=default;align=center;verticalAlign=middle;fontFamily=Helvetica;fontSize=12;fontColor=default;labelBackgroundColor=default;fillColor=default;" vertex="1" parent="WIyWlLk6GJQsqaUBKTNV-1">
          <mxGeometry x="1331" y="580" width="120" height="60" as="geometry" />
        </mxCell>
        <mxCell id="Trn8S8U_fDd8YShinlyO-25" value="" style="endArrow=classic;html=1;rounded=0;fontFamily=Helvetica;fontSize=12;fontColor=default;labelBackgroundColor=default;exitX=0.5;exitY=1;exitDx=0;exitDy=0;entryX=0.5;entryY=0;entryDx=0;entryDy=0;" edge="1" parent="WIyWlLk6GJQsqaUBKTNV-1" source="Trn8S8U_fDd8YShinlyO-20" target="Trn8S8U_fDd8YShinlyO-23">
          <mxGeometry width="50" height="50" relative="1" as="geometry">
            <mxPoint x="1201" y="420" as="sourcePoint" />
            <mxPoint x="1201" y="460" as="targetPoint" />
          </mxGeometry>
        </mxCell>
        <mxCell id="Trn8S8U_fDd8YShinlyO-34" style="edgeStyle=orthogonalEdgeStyle;rounded=0;orthogonalLoop=1;jettySize=auto;html=1;exitX=0.5;exitY=1;exitDx=0;exitDy=0;entryX=0.5;entryY=0;entryDx=0;entryDy=0;fontFamily=Helvetica;fontSize=12;fontColor=default;labelBackgroundColor=default;" edge="1" parent="WIyWlLk6GJQsqaUBKTNV-1" source="Trn8S8U_fDd8YShinlyO-26" target="Trn8S8U_fDd8YShinlyO-33">
          <mxGeometry relative="1" as="geometry" />
        </mxCell>
        <mxCell id="Trn8S8U_fDd8YShinlyO-26" value="카테고리 관련&lt;div&gt;메뉴 출력&lt;/div&gt;" style="shape=parallelogram;perimeter=parallelogramPerimeter;whiteSpace=wrap;html=1;fixedSize=1;strokeColor=default;align=center;verticalAlign=middle;fontFamily=Helvetica;fontSize=12;fontColor=default;labelBackgroundColor=default;fillColor=default;" vertex="1" parent="WIyWlLk6GJQsqaUBKTNV-1">
          <mxGeometry x="1131" y="580" width="120" height="60" as="geometry" />
        </mxCell>
        <mxCell id="Trn8S8U_fDd8YShinlyO-27" value="" style="endArrow=classic;html=1;rounded=0;fontFamily=Helvetica;fontSize=12;fontColor=default;labelBackgroundColor=default;exitX=0.5;exitY=1;exitDx=0;exitDy=0;entryX=0.5;entryY=0;entryDx=0;entryDy=0;" edge="1" parent="WIyWlLk6GJQsqaUBKTNV-1" source="Trn8S8U_fDd8YShinlyO-18" target="Trn8S8U_fDd8YShinlyO-26">
          <mxGeometry relative="1" as="geometry">
            <mxPoint x="1266" y="500" as="sourcePoint" />
            <mxPoint x="1351" y="500" as="targetPoint" />
          </mxGeometry>
        </mxCell>
        <mxCell id="Trn8S8U_fDd8YShinlyO-28" value="No" style="edgeLabel;resizable=0;html=1;;align=center;verticalAlign=middle;strokeColor=default;fontFamily=Helvetica;fontSize=12;fontColor=default;labelBackgroundColor=default;fillColor=default;" connectable="0" vertex="1" parent="Trn8S8U_fDd8YShinlyO-27">
          <mxGeometry relative="1" as="geometry" />
        </mxCell>
        <mxCell id="Trn8S8U_fDd8YShinlyO-37" style="edgeStyle=orthogonalEdgeStyle;rounded=0;orthogonalLoop=1;jettySize=auto;html=1;entryX=0.5;entryY=0;entryDx=0;entryDy=0;fontFamily=Helvetica;fontSize=12;fontColor=default;labelBackgroundColor=default;" edge="1" parent="WIyWlLk6GJQsqaUBKTNV-1" source="Trn8S8U_fDd8YShinlyO-33" target="Trn8S8U_fDd8YShinlyO-35">
          <mxGeometry relative="1" as="geometry" />
        </mxCell>
        <mxCell id="Trn8S8U_fDd8YShinlyO-33" value="별점,표지,제목,작가,출판사,장르,가격 출력" style="shape=document;whiteSpace=wrap;html=1;boundedLbl=1;strokeColor=default;align=center;verticalAlign=middle;fontFamily=Helvetica;fontSize=12;fontColor=default;labelBackgroundColor=default;fillColor=default;" vertex="1" parent="WIyWlLk6GJQsqaUBKTNV-1">
          <mxGeometry x="1131" y="680" width="120" height="80" as="geometry" />
        </mxCell>
        <mxCell id="Trn8S8U_fDd8YShinlyO-36" value="No" style="edgeStyle=orthogonalEdgeStyle;rounded=0;orthogonalLoop=1;jettySize=auto;html=1;exitX=1;exitY=0.5;exitDx=0;exitDy=0;entryX=1;entryY=0.5;entryDx=0;entryDy=0;fontFamily=Helvetica;fontSize=12;fontColor=default;labelBackgroundColor=default;" edge="1" parent="WIyWlLk6GJQsqaUBKTNV-1" source="Trn8S8U_fDd8YShinlyO-35" target="Trn8S8U_fDd8YShinlyO-33">
          <mxGeometry relative="1" as="geometry" />
        </mxCell>
        <mxCell id="Trn8S8U_fDd8YShinlyO-39" value="Yes" style="edgeStyle=orthogonalEdgeStyle;rounded=0;orthogonalLoop=1;jettySize=auto;html=1;exitX=0.5;exitY=1;exitDx=0;exitDy=0;entryX=0.5;entryY=0;entryDx=0;entryDy=0;fontFamily=Helvetica;fontSize=12;fontColor=default;labelBackgroundColor=default;" edge="1" parent="WIyWlLk6GJQsqaUBKTNV-1" source="Trn8S8U_fDd8YShinlyO-35" target="Trn8S8U_fDd8YShinlyO-38">
          <mxGeometry relative="1" as="geometry">
            <mxPoint x="1191" y="945" as="sourcePoint" />
          </mxGeometry>
        </mxCell>
        <mxCell id="Trn8S8U_fDd8YShinlyO-35" value="항목에&lt;div&gt;마우스를&lt;/div&gt;&lt;div&gt;올린다&lt;/div&gt;" style="rhombus;whiteSpace=wrap;html=1;strokeColor=default;align=center;verticalAlign=middle;fontFamily=Helvetica;fontSize=12;fontColor=default;labelBackgroundColor=default;fillColor=default;" vertex="1" parent="WIyWlLk6GJQsqaUBKTNV-1">
          <mxGeometry x="1126" y="810" width="130" height="80" as="geometry" />
        </mxCell>
        <mxCell id="Trn8S8U_fDd8YShinlyO-49" style="edgeStyle=orthogonalEdgeStyle;rounded=0;orthogonalLoop=1;jettySize=auto;html=1;exitX=0.5;exitY=1;exitDx=0;exitDy=0;entryX=0.5;entryY=0;entryDx=0;entryDy=0;fontFamily=Helvetica;fontSize=12;fontColor=default;labelBackgroundColor=default;" edge="1" parent="WIyWlLk6GJQsqaUBKTNV-1" source="Trn8S8U_fDd8YShinlyO-38" target="Trn8S8U_fDd8YShinlyO-47">
          <mxGeometry relative="1" as="geometry" />
        </mxCell>
        <mxCell id="Trn8S8U_fDd8YShinlyO-116" style="edgeStyle=orthogonalEdgeStyle;rounded=0;orthogonalLoop=1;jettySize=auto;html=1;exitX=0.5;exitY=1;exitDx=0;exitDy=0;entryX=0.5;entryY=0;entryDx=0;entryDy=0;fontFamily=Helvetica;fontSize=12;fontColor=default;labelBackgroundColor=default;" edge="1" parent="WIyWlLk6GJQsqaUBKTNV-1" source="Trn8S8U_fDd8YShinlyO-38" target="Trn8S8U_fDd8YShinlyO-40">
          <mxGeometry relative="1" as="geometry">
            <Array as="points">
              <mxPoint x="1192" y="1040" />
              <mxPoint x="523" y="1040" />
            </Array>
          </mxGeometry>
        </mxCell>
        <mxCell id="Trn8S8U_fDd8YShinlyO-131" style="edgeStyle=orthogonalEdgeStyle;rounded=0;orthogonalLoop=1;jettySize=auto;html=1;exitX=0.5;exitY=1;exitDx=0;exitDy=0;entryX=0.513;entryY=0.028;entryDx=0;entryDy=0;fontFamily=Helvetica;fontSize=12;fontColor=default;labelBackgroundColor=default;entryPerimeter=0;" edge="1" parent="WIyWlLk6GJQsqaUBKTNV-1" source="Trn8S8U_fDd8YShinlyO-38" target="Trn8S8U_fDd8YShinlyO-117">
          <mxGeometry relative="1" as="geometry">
            <Array as="points">
              <mxPoint x="1192" y="1040" />
              <mxPoint x="2961" y="1040" />
            </Array>
          </mxGeometry>
        </mxCell>
        <mxCell id="Trn8S8U_fDd8YShinlyO-168" style="edgeStyle=orthogonalEdgeStyle;rounded=0;orthogonalLoop=1;jettySize=auto;html=1;exitX=0.5;exitY=1;exitDx=0;exitDy=0;fontFamily=Helvetica;fontSize=12;fontColor=default;labelBackgroundColor=default;" edge="1" parent="WIyWlLk6GJQsqaUBKTNV-1" source="Trn8S8U_fDd8YShinlyO-38" target="Trn8S8U_fDd8YShinlyO-95">
          <mxGeometry relative="1" as="geometry">
            <Array as="points">
              <mxPoint x="1192" y="1040" />
              <mxPoint x="1790" y="1040" />
            </Array>
          </mxGeometry>
        </mxCell>
        <mxCell id="Trn8S8U_fDd8YShinlyO-377" style="edgeStyle=orthogonalEdgeStyle;rounded=0;orthogonalLoop=1;jettySize=auto;html=1;exitX=0.5;exitY=1;exitDx=0;exitDy=0;entryX=0.5;entryY=0;entryDx=0;entryDy=0;fontFamily=Helvetica;fontSize=12;fontColor=default;labelBackgroundColor=default;" edge="1" parent="WIyWlLk6GJQsqaUBKTNV-1" source="Trn8S8U_fDd8YShinlyO-38" target="Trn8S8U_fDd8YShinlyO-374">
          <mxGeometry relative="1" as="geometry">
            <Array as="points">
              <mxPoint x="1192" y="1040" />
              <mxPoint x="2311" y="1040" />
            </Array>
          </mxGeometry>
        </mxCell>
        <mxCell id="Trn8S8U_fDd8YShinlyO-38" value="찜하기,장바구니,&lt;div&gt;상세정보,&lt;/div&gt;&lt;div&gt;미리보기 버튼 출력&lt;/div&gt;" style="shape=parallelogram;perimeter=parallelogramPerimeter;whiteSpace=wrap;html=1;fixedSize=1;strokeColor=default;align=center;verticalAlign=middle;fontFamily=Helvetica;fontSize=12;fontColor=default;labelBackgroundColor=default;fillColor=default;" vertex="1" parent="WIyWlLk6GJQsqaUBKTNV-1">
          <mxGeometry x="1117" y="945" width="150" height="60" as="geometry" />
        </mxCell>
        <mxCell id="Trn8S8U_fDd8YShinlyO-43" style="edgeStyle=orthogonalEdgeStyle;rounded=0;orthogonalLoop=1;jettySize=auto;html=1;exitX=0.5;exitY=1;exitDx=0;exitDy=0;entryX=0.5;entryY=0;entryDx=0;entryDy=0;fontFamily=Helvetica;fontSize=12;fontColor=default;labelBackgroundColor=default;" edge="1" parent="WIyWlLk6GJQsqaUBKTNV-1" source="Trn8S8U_fDd8YShinlyO-40" target="Trn8S8U_fDd8YShinlyO-42">
          <mxGeometry relative="1" as="geometry" />
        </mxCell>
        <mxCell id="Trn8S8U_fDd8YShinlyO-247" style="edgeStyle=orthogonalEdgeStyle;rounded=0;orthogonalLoop=1;jettySize=auto;html=1;exitX=1;exitY=0.5;exitDx=0;exitDy=0;entryX=0;entryY=0.5;entryDx=0;entryDy=0;fontFamily=Helvetica;fontSize=12;fontColor=default;labelBackgroundColor=default;fillColor=#f8cecc;strokeColor=#b85450;" edge="1" parent="WIyWlLk6GJQsqaUBKTNV-1" source="Trn8S8U_fDd8YShinlyO-40" target="Trn8S8U_fDd8YShinlyO-246">
          <mxGeometry relative="1" as="geometry" />
        </mxCell>
        <mxCell id="Trn8S8U_fDd8YShinlyO-40" value="미리보기 클릭" style="rounded=0;whiteSpace=wrap;html=1;strokeColor=default;align=center;verticalAlign=middle;fontFamily=Helvetica;fontSize=12;fontColor=default;labelBackgroundColor=default;fillColor=default;" vertex="1" parent="WIyWlLk6GJQsqaUBKTNV-1">
          <mxGeometry x="463" y="1130" width="120" height="60" as="geometry" />
        </mxCell>
        <mxCell id="Trn8S8U_fDd8YShinlyO-45" style="edgeStyle=orthogonalEdgeStyle;rounded=0;orthogonalLoop=1;jettySize=auto;html=1;exitX=0;exitY=0.5;exitDx=0;exitDy=0;entryX=1;entryY=0.5;entryDx=0;entryDy=0;fontFamily=Helvetica;fontSize=12;fontColor=default;labelBackgroundColor=default;" edge="1" parent="WIyWlLk6GJQsqaUBKTNV-1" source="Trn8S8U_fDd8YShinlyO-42" target="Trn8S8U_fDd8YShinlyO-44">
          <mxGeometry relative="1" as="geometry" />
        </mxCell>
        <mxCell id="Trn8S8U_fDd8YShinlyO-230" style="edgeStyle=orthogonalEdgeStyle;rounded=0;orthogonalLoop=1;jettySize=auto;html=1;exitX=1;exitY=0.5;exitDx=0;exitDy=0;entryX=0;entryY=0.5;entryDx=0;entryDy=0;fontFamily=Helvetica;fontSize=12;fontColor=default;labelBackgroundColor=default;fillColor=#f8cecc;strokeColor=#000000;" edge="1" parent="WIyWlLk6GJQsqaUBKTNV-1" source="Trn8S8U_fDd8YShinlyO-42" target="Trn8S8U_fDd8YShinlyO-229">
          <mxGeometry relative="1" as="geometry" />
        </mxCell>
        <mxCell id="Trn8S8U_fDd8YShinlyO-42" value="미리보기 페이지,&lt;div&gt;취소버튼, 이전버튼,&lt;/div&gt;&lt;div&gt;다음버튼 출력&lt;/div&gt;" style="shape=parallelogram;perimeter=parallelogramPerimeter;whiteSpace=wrap;html=1;fixedSize=1;strokeColor=default;align=center;verticalAlign=middle;fontFamily=Helvetica;fontSize=12;fontColor=default;labelBackgroundColor=default;fillColor=default;" vertex="1" parent="WIyWlLk6GJQsqaUBKTNV-1">
          <mxGeometry x="448" y="1305" width="150" height="60" as="geometry" />
        </mxCell>
        <mxCell id="Trn8S8U_fDd8YShinlyO-44" value="취소버튼 클릭" style="rounded=0;whiteSpace=wrap;html=1;strokeColor=default;align=center;verticalAlign=middle;fontFamily=Helvetica;fontSize=12;fontColor=default;labelBackgroundColor=default;fillColor=default;" vertex="1" parent="WIyWlLk6GJQsqaUBKTNV-1">
          <mxGeometry x="293" y="1305" width="120" height="60" as="geometry" />
        </mxCell>
        <mxCell id="Trn8S8U_fDd8YShinlyO-46" style="edgeStyle=orthogonalEdgeStyle;rounded=0;orthogonalLoop=1;jettySize=auto;html=1;exitX=0.5;exitY=0;exitDx=0;exitDy=0;fontFamily=Helvetica;fontSize=12;fontColor=default;labelBackgroundColor=default;" edge="1" parent="WIyWlLk6GJQsqaUBKTNV-1" source="Trn8S8U_fDd8YShinlyO-44">
          <mxGeometry relative="1" as="geometry">
            <mxPoint x="1130" y="710" as="targetPoint" />
            <Array as="points">
              <mxPoint x="750" y="710" />
              <mxPoint x="1130" y="710" />
            </Array>
          </mxGeometry>
        </mxCell>
        <mxCell id="Trn8S8U_fDd8YShinlyO-51" style="edgeStyle=orthogonalEdgeStyle;rounded=0;orthogonalLoop=1;jettySize=auto;html=1;exitX=0.5;exitY=1;exitDx=0;exitDy=0;entryX=0.5;entryY=0;entryDx=0;entryDy=0;fontFamily=Helvetica;fontSize=12;fontColor=default;labelBackgroundColor=default;fillColor=#dae8fc;strokeColor=#6c8ebf;" edge="1" parent="WIyWlLk6GJQsqaUBKTNV-1" source="Trn8S8U_fDd8YShinlyO-47" target="Trn8S8U_fDd8YShinlyO-50">
          <mxGeometry relative="1" as="geometry">
            <Array as="points">
              <mxPoint x="1191" y="1190" />
            </Array>
          </mxGeometry>
        </mxCell>
        <mxCell id="Trn8S8U_fDd8YShinlyO-248" style="edgeStyle=orthogonalEdgeStyle;rounded=0;orthogonalLoop=1;jettySize=auto;html=1;exitX=0;exitY=0.5;exitDx=0;exitDy=0;entryX=1;entryY=0.5;entryDx=0;entryDy=0;fontFamily=Helvetica;fontSize=12;fontColor=default;labelBackgroundColor=default;fillColor=#f8cecc;strokeColor=#b85450;" edge="1" parent="WIyWlLk6GJQsqaUBKTNV-1" source="Trn8S8U_fDd8YShinlyO-47" target="Trn8S8U_fDd8YShinlyO-246">
          <mxGeometry relative="1" as="geometry">
            <mxPoint x="1015" y="1160" as="sourcePoint" />
          </mxGeometry>
        </mxCell>
        <mxCell id="Trn8S8U_fDd8YShinlyO-47" value="상세정보 클릭" style="rounded=0;whiteSpace=wrap;html=1;strokeColor=default;align=center;verticalAlign=middle;fontFamily=Helvetica;fontSize=12;fontColor=default;labelBackgroundColor=default;fillColor=default;" vertex="1" parent="WIyWlLk6GJQsqaUBKTNV-1">
          <mxGeometry x="1132" y="1130" width="120" height="60" as="geometry" />
        </mxCell>
        <mxCell id="Trn8S8U_fDd8YShinlyO-56" style="edgeStyle=orthogonalEdgeStyle;rounded=0;orthogonalLoop=1;jettySize=auto;html=1;exitX=1;exitY=0.5;exitDx=0;exitDy=0;entryX=1;entryY=0.5;entryDx=0;entryDy=0;fontFamily=Helvetica;fontSize=12;fontColor=default;labelBackgroundColor=default;fillColor=#f8cecc;strokeColor=#b85450;" edge="1" parent="WIyWlLk6GJQsqaUBKTNV-1" source="Trn8S8U_fDd8YShinlyO-50" target="Trn8S8U_fDd8YShinlyO-53">
          <mxGeometry relative="1" as="geometry" />
        </mxCell>
        <mxCell id="Trn8S8U_fDd8YShinlyO-59" style="edgeStyle=orthogonalEdgeStyle;rounded=0;orthogonalLoop=1;jettySize=auto;html=1;exitX=0.5;exitY=1;exitDx=0;exitDy=0;entryX=0.5;entryY=0;entryDx=0;entryDy=0;fontFamily=Helvetica;fontSize=12;fontColor=default;labelBackgroundColor=default;" edge="1" parent="WIyWlLk6GJQsqaUBKTNV-1" source="Trn8S8U_fDd8YShinlyO-50" target="Trn8S8U_fDd8YShinlyO-58">
          <mxGeometry relative="1" as="geometry" />
        </mxCell>
        <mxCell id="Trn8S8U_fDd8YShinlyO-50" value="닫기버튼, 상세정보,&lt;div&gt;책수량조절,&lt;/div&gt;&lt;div&gt;장바구니 담기&lt;/div&gt;&lt;div&gt;버튼 출력&lt;/div&gt;" style="shape=parallelogram;perimeter=parallelogramPerimeter;whiteSpace=wrap;html=1;fixedSize=1;strokeColor=default;align=center;verticalAlign=middle;fontFamily=Helvetica;fontSize=12;fontColor=default;labelBackgroundColor=default;fillColor=default;" vertex="1" parent="WIyWlLk6GJQsqaUBKTNV-1">
          <mxGeometry x="1116" y="1420" width="150" height="60" as="geometry" />
        </mxCell>
        <mxCell id="Trn8S8U_fDd8YShinlyO-57" style="edgeStyle=orthogonalEdgeStyle;rounded=0;orthogonalLoop=1;jettySize=auto;html=1;fontFamily=Helvetica;fontSize=12;fontColor=default;labelBackgroundColor=default;exitX=0.5;exitY=0;exitDx=0;exitDy=0;" edge="1" parent="WIyWlLk6GJQsqaUBKTNV-1" source="Trn8S8U_fDd8YShinlyO-53">
          <mxGeometry relative="1" as="geometry">
            <mxPoint x="370" y="1350" as="sourcePoint" />
            <mxPoint x="1130" y="710" as="targetPoint" />
            <Array as="points">
              <mxPoint x="260" y="1420" />
              <mxPoint x="260" y="710" />
            </Array>
          </mxGeometry>
        </mxCell>
        <mxCell id="Trn8S8U_fDd8YShinlyO-53" value="닫기버튼 또는&lt;div&gt;밖 오버레이 클릭&lt;/div&gt;" style="rounded=0;whiteSpace=wrap;html=1;strokeColor=default;align=center;verticalAlign=middle;fontFamily=Helvetica;fontSize=12;fontColor=default;labelBackgroundColor=default;fillColor=default;" vertex="1" parent="WIyWlLk6GJQsqaUBKTNV-1">
          <mxGeometry x="202" y="1420" width="120" height="60" as="geometry" />
        </mxCell>
        <mxCell id="Trn8S8U_fDd8YShinlyO-65" style="edgeStyle=orthogonalEdgeStyle;rounded=0;orthogonalLoop=1;jettySize=auto;html=1;exitX=0.5;exitY=1;exitDx=0;exitDy=0;entryX=0.5;entryY=0;entryDx=0;entryDy=0;fontFamily=Helvetica;fontSize=12;fontColor=default;labelBackgroundColor=default;" edge="1" parent="WIyWlLk6GJQsqaUBKTNV-1" source="Trn8S8U_fDd8YShinlyO-58" target="Trn8S8U_fDd8YShinlyO-64">
          <mxGeometry relative="1" as="geometry" />
        </mxCell>
        <mxCell id="Trn8S8U_fDd8YShinlyO-66" style="edgeStyle=orthogonalEdgeStyle;rounded=0;orthogonalLoop=1;jettySize=auto;html=1;exitX=0.5;exitY=1;exitDx=0;exitDy=0;entryX=0.5;entryY=0;entryDx=0;entryDy=0;fontFamily=Helvetica;fontSize=12;fontColor=default;labelBackgroundColor=default;" edge="1" parent="WIyWlLk6GJQsqaUBKTNV-1" source="Trn8S8U_fDd8YShinlyO-58" target="Trn8S8U_fDd8YShinlyO-61">
          <mxGeometry relative="1" as="geometry" />
        </mxCell>
        <mxCell id="Trn8S8U_fDd8YShinlyO-67" style="edgeStyle=orthogonalEdgeStyle;rounded=0;orthogonalLoop=1;jettySize=auto;html=1;exitX=0.5;exitY=1;exitDx=0;exitDy=0;entryX=0.5;entryY=0;entryDx=0;entryDy=0;fontFamily=Helvetica;fontSize=12;fontColor=default;labelBackgroundColor=default;" edge="1" parent="WIyWlLk6GJQsqaUBKTNV-1" source="Trn8S8U_fDd8YShinlyO-58" target="Trn8S8U_fDd8YShinlyO-60">
          <mxGeometry relative="1" as="geometry" />
        </mxCell>
        <mxCell id="Trn8S8U_fDd8YShinlyO-58" value="팝업 내&lt;div&gt;책 수량 1 출력&lt;/div&gt;" style="shape=parallelogram;perimeter=parallelogramPerimeter;whiteSpace=wrap;html=1;fixedSize=1;strokeColor=default;align=center;verticalAlign=middle;fontFamily=Helvetica;fontSize=12;fontColor=default;labelBackgroundColor=default;fillColor=default;" vertex="1" parent="WIyWlLk6GJQsqaUBKTNV-1">
          <mxGeometry x="1116" y="1510" width="150" height="60" as="geometry" />
        </mxCell>
        <mxCell id="Trn8S8U_fDd8YShinlyO-84" style="edgeStyle=orthogonalEdgeStyle;rounded=0;orthogonalLoop=1;jettySize=auto;html=1;exitX=0.5;exitY=1;exitDx=0;exitDy=0;entryX=0.5;entryY=0;entryDx=0;entryDy=0;fontFamily=Helvetica;fontSize=12;fontColor=default;labelBackgroundColor=default;" edge="1" parent="WIyWlLk6GJQsqaUBKTNV-1" source="Trn8S8U_fDd8YShinlyO-60" target="Trn8S8U_fDd8YShinlyO-72">
          <mxGeometry relative="1" as="geometry">
            <mxPoint x="1690" y="1670" as="sourcePoint" />
            <mxPoint x="1690" y="1915" as="targetPoint" />
          </mxGeometry>
        </mxCell>
        <mxCell id="Trn8S8U_fDd8YShinlyO-60" value="&#39;+&#39; 버튼 클릭" style="rounded=0;whiteSpace=wrap;html=1;strokeColor=default;align=center;verticalAlign=middle;fontFamily=Helvetica;fontSize=12;fontColor=default;labelBackgroundColor=default;fillColor=default;" vertex="1" parent="WIyWlLk6GJQsqaUBKTNV-1">
          <mxGeometry x="1342" y="1610" width="120" height="60" as="geometry" />
        </mxCell>
        <mxCell id="Trn8S8U_fDd8YShinlyO-76" style="edgeStyle=orthogonalEdgeStyle;rounded=0;orthogonalLoop=1;jettySize=auto;html=1;exitX=0.5;exitY=1;exitDx=0;exitDy=0;entryX=0.5;entryY=0;entryDx=0;entryDy=0;fontFamily=Helvetica;fontSize=12;fontColor=default;labelBackgroundColor=default;" edge="1" parent="WIyWlLk6GJQsqaUBKTNV-1" source="Trn8S8U_fDd8YShinlyO-61" target="Trn8S8U_fDd8YShinlyO-75">
          <mxGeometry relative="1" as="geometry" />
        </mxCell>
        <mxCell id="Trn8S8U_fDd8YShinlyO-61" value="&#39;-&#39; 버튼 클릭" style="rounded=0;whiteSpace=wrap;html=1;strokeColor=default;align=center;verticalAlign=middle;fontFamily=Helvetica;fontSize=12;fontColor=default;labelBackgroundColor=default;fillColor=default;" vertex="1" parent="WIyWlLk6GJQsqaUBKTNV-1">
          <mxGeometry x="920" y="1610" width="120" height="60" as="geometry" />
        </mxCell>
        <mxCell id="Trn8S8U_fDd8YShinlyO-86" style="edgeStyle=orthogonalEdgeStyle;rounded=0;orthogonalLoop=1;jettySize=auto;html=1;exitX=0.5;exitY=1;exitDx=0;exitDy=0;entryX=0.5;entryY=0;entryDx=0;entryDy=0;fontFamily=Helvetica;fontSize=12;fontColor=default;labelBackgroundColor=default;" edge="1" parent="WIyWlLk6GJQsqaUBKTNV-1" source="Trn8S8U_fDd8YShinlyO-64" target="Trn8S8U_fDd8YShinlyO-78">
          <mxGeometry relative="1" as="geometry" />
        </mxCell>
        <mxCell id="Trn8S8U_fDd8YShinlyO-64" value="입력칸에&lt;div&gt;값 입력&lt;/div&gt;" style="verticalLabelPosition=middle;verticalAlign=middle;html=1;shape=trapezoid;perimeter=trapezoidPerimeter;whiteSpace=wrap;size=0.23;arcSize=10;flipV=1;labelPosition=center;align=center;strokeColor=default;fontFamily=Helvetica;fontSize=12;fontColor=default;labelBackgroundColor=default;fillColor=default;" vertex="1" parent="WIyWlLk6GJQsqaUBKTNV-1">
          <mxGeometry x="1141" y="1610" width="100" height="60" as="geometry" />
        </mxCell>
        <mxCell id="Trn8S8U_fDd8YShinlyO-83" style="edgeStyle=orthogonalEdgeStyle;rounded=0;orthogonalLoop=1;jettySize=auto;html=1;exitX=0.5;exitY=1;exitDx=0;exitDy=0;fontFamily=Helvetica;fontSize=12;fontColor=default;labelBackgroundColor=default;" edge="1" parent="WIyWlLk6GJQsqaUBKTNV-1" source="Trn8S8U_fDd8YShinlyO-70">
          <mxGeometry relative="1" as="geometry">
            <mxPoint x="1191.363636363636" y="2035" as="targetPoint" />
          </mxGeometry>
        </mxCell>
        <mxCell id="Trn8S8U_fDd8YShinlyO-70" value="입력값으로&lt;div&gt;변경&lt;/div&gt;" style="shape=parallelogram;perimeter=parallelogramPerimeter;whiteSpace=wrap;html=1;fixedSize=1;strokeColor=default;align=center;verticalAlign=middle;fontFamily=Helvetica;fontSize=12;fontColor=default;labelBackgroundColor=default;fillColor=default;" vertex="1" parent="WIyWlLk6GJQsqaUBKTNV-1">
          <mxGeometry x="1116" y="1915" width="150" height="60" as="geometry" />
        </mxCell>
        <mxCell id="Trn8S8U_fDd8YShinlyO-80" style="edgeStyle=orthogonalEdgeStyle;rounded=0;orthogonalLoop=1;jettySize=auto;html=1;exitX=0.5;exitY=1;exitDx=0;exitDy=0;entryX=0.5;entryY=0;entryDx=0;entryDy=0;fontFamily=Helvetica;fontSize=12;fontColor=default;labelBackgroundColor=default;" edge="1" parent="WIyWlLk6GJQsqaUBKTNV-1" source="Trn8S8U_fDd8YShinlyO-71" target="Trn8S8U_fDd8YShinlyO-73">
          <mxGeometry relative="1" as="geometry" />
        </mxCell>
        <mxCell id="Trn8S8U_fDd8YShinlyO-71" value="책 수량&lt;div&gt;1 감소&lt;/div&gt;" style="shape=parallelogram;perimeter=parallelogramPerimeter;whiteSpace=wrap;html=1;fixedSize=1;strokeColor=default;align=center;verticalAlign=middle;fontFamily=Helvetica;fontSize=12;fontColor=default;labelBackgroundColor=default;fillColor=default;" vertex="1" parent="WIyWlLk6GJQsqaUBKTNV-1">
          <mxGeometry x="905" y="1915" width="150" height="60" as="geometry" />
        </mxCell>
        <mxCell id="Trn8S8U_fDd8YShinlyO-82" style="edgeStyle=orthogonalEdgeStyle;rounded=0;orthogonalLoop=1;jettySize=auto;html=1;exitX=0.5;exitY=1;exitDx=0;exitDy=0;entryX=0.5;entryY=0;entryDx=0;entryDy=0;fontFamily=Helvetica;fontSize=12;fontColor=default;labelBackgroundColor=default;" edge="1" parent="WIyWlLk6GJQsqaUBKTNV-1" source="Trn8S8U_fDd8YShinlyO-72" target="Trn8S8U_fDd8YShinlyO-73">
          <mxGeometry relative="1" as="geometry" />
        </mxCell>
        <mxCell id="Trn8S8U_fDd8YShinlyO-72" value="책 수량&lt;div&gt;1 증가&lt;/div&gt;" style="shape=parallelogram;perimeter=parallelogramPerimeter;whiteSpace=wrap;html=1;fixedSize=1;strokeColor=default;align=center;verticalAlign=middle;fontFamily=Helvetica;fontSize=12;fontColor=default;labelBackgroundColor=default;fillColor=default;" vertex="1" parent="WIyWlLk6GJQsqaUBKTNV-1">
          <mxGeometry x="1327" y="1915" width="150" height="60" as="geometry" />
        </mxCell>
        <mxCell id="Trn8S8U_fDd8YShinlyO-170" style="edgeStyle=orthogonalEdgeStyle;rounded=0;orthogonalLoop=1;jettySize=auto;html=1;exitX=1;exitY=0.5;exitDx=0;exitDy=0;entryX=0;entryY=0.5;entryDx=0;entryDy=0;fontFamily=Helvetica;fontSize=12;fontColor=default;labelBackgroundColor=default;" edge="1" parent="WIyWlLk6GJQsqaUBKTNV-1" source="Trn8S8U_fDd8YShinlyO-73" target="Trn8S8U_fDd8YShinlyO-104">
          <mxGeometry relative="1" as="geometry">
            <Array as="points">
              <mxPoint x="1520" y="2065" />
              <mxPoint x="1520" y="1870" />
            </Array>
          </mxGeometry>
        </mxCell>
        <mxCell id="Trn8S8U_fDd8YShinlyO-73" value="장바구니 담기&lt;div&gt;버튼 클릭&lt;/div&gt;" style="rounded=0;whiteSpace=wrap;html=1;strokeColor=default;align=center;verticalAlign=middle;fontFamily=Helvetica;fontSize=12;fontColor=default;labelBackgroundColor=default;fillColor=default;" vertex="1" parent="WIyWlLk6GJQsqaUBKTNV-1">
          <mxGeometry x="1132" y="2035" width="120" height="60" as="geometry" />
        </mxCell>
        <mxCell id="Trn8S8U_fDd8YShinlyO-79" value="No" style="edgeStyle=orthogonalEdgeStyle;rounded=0;orthogonalLoop=1;jettySize=auto;html=1;exitX=0.5;exitY=1;exitDx=0;exitDy=0;entryX=0.5;entryY=0;entryDx=0;entryDy=0;fontFamily=Helvetica;fontSize=12;fontColor=default;labelBackgroundColor=default;" edge="1" parent="WIyWlLk6GJQsqaUBKTNV-1" source="Trn8S8U_fDd8YShinlyO-75" target="Trn8S8U_fDd8YShinlyO-71">
          <mxGeometry relative="1" as="geometry" />
        </mxCell>
        <mxCell id="Trn8S8U_fDd8YShinlyO-85" style="edgeStyle=orthogonalEdgeStyle;rounded=0;orthogonalLoop=1;jettySize=auto;html=1;exitX=0;exitY=0.5;exitDx=0;exitDy=0;entryX=0;entryY=0.5;entryDx=0;entryDy=0;fontFamily=Helvetica;fontSize=12;fontColor=default;labelBackgroundColor=default;" edge="1" parent="WIyWlLk6GJQsqaUBKTNV-1" source="Trn8S8U_fDd8YShinlyO-75" target="Trn8S8U_fDd8YShinlyO-58">
          <mxGeometry relative="1" as="geometry">
            <Array as="points">
              <mxPoint x="850" y="1815" />
              <mxPoint x="850" y="1540" />
            </Array>
          </mxGeometry>
        </mxCell>
        <mxCell id="Trn8S8U_fDd8YShinlyO-75" value="입력칸 값이&lt;div&gt;1 미만&lt;/div&gt;" style="rhombus;whiteSpace=wrap;html=1;strokeColor=default;align=center;verticalAlign=middle;fontFamily=Helvetica;fontSize=12;fontColor=default;labelBackgroundColor=default;fillColor=default;" vertex="1" parent="WIyWlLk6GJQsqaUBKTNV-1">
          <mxGeometry x="915" y="1775" width="130" height="80" as="geometry" />
        </mxCell>
        <mxCell id="Trn8S8U_fDd8YShinlyO-87" value="No" style="edgeStyle=orthogonalEdgeStyle;rounded=0;orthogonalLoop=1;jettySize=auto;html=1;exitX=0.5;exitY=1;exitDx=0;exitDy=0;fontFamily=Helvetica;fontSize=12;fontColor=default;labelBackgroundColor=default;" edge="1" parent="WIyWlLk6GJQsqaUBKTNV-1" source="Trn8S8U_fDd8YShinlyO-78" target="Trn8S8U_fDd8YShinlyO-70">
          <mxGeometry relative="1" as="geometry" />
        </mxCell>
        <mxCell id="Trn8S8U_fDd8YShinlyO-90" style="edgeStyle=orthogonalEdgeStyle;rounded=0;orthogonalLoop=1;jettySize=auto;html=1;exitX=0;exitY=0.5;exitDx=0;exitDy=0;entryX=0;entryY=0.5;entryDx=0;entryDy=0;fontFamily=Helvetica;fontSize=12;fontColor=default;labelBackgroundColor=default;" edge="1" parent="WIyWlLk6GJQsqaUBKTNV-1" source="Trn8S8U_fDd8YShinlyO-78" target="Trn8S8U_fDd8YShinlyO-58">
          <mxGeometry relative="1" as="geometry">
            <Array as="points">
              <mxPoint x="850" y="1735" />
              <mxPoint x="850" y="1540" />
            </Array>
          </mxGeometry>
        </mxCell>
        <mxCell id="Trn8S8U_fDd8YShinlyO-78" value="입력칸 값이&lt;div&gt;1 미만&lt;/div&gt;" style="rhombus;whiteSpace=wrap;html=1;strokeColor=default;align=center;verticalAlign=middle;fontFamily=Helvetica;fontSize=12;fontColor=default;labelBackgroundColor=default;fillColor=default;" vertex="1" parent="WIyWlLk6GJQsqaUBKTNV-1">
          <mxGeometry x="1127" y="1695" width="130" height="80" as="geometry" />
        </mxCell>
        <mxCell id="Trn8S8U_fDd8YShinlyO-92" value="Yes" style="text;html=1;align=center;verticalAlign=middle;whiteSpace=wrap;rounded=0;fontFamily=Helvetica;fontSize=12;fontColor=default;labelBackgroundColor=default;" vertex="1" parent="WIyWlLk6GJQsqaUBKTNV-1">
          <mxGeometry x="1072" y="1720" width="60" height="30" as="geometry" />
        </mxCell>
        <mxCell id="Trn8S8U_fDd8YShinlyO-93" value="Yes" style="text;html=1;align=center;verticalAlign=middle;whiteSpace=wrap;rounded=0;fontFamily=Helvetica;fontSize=12;fontColor=default;labelBackgroundColor=default;" vertex="1" parent="WIyWlLk6GJQsqaUBKTNV-1">
          <mxGeometry x="855" y="1800" width="60" height="30" as="geometry" />
        </mxCell>
        <mxCell id="Trn8S8U_fDd8YShinlyO-103" value="Yes" style="edgeStyle=orthogonalEdgeStyle;rounded=0;orthogonalLoop=1;jettySize=auto;html=1;fontFamily=Helvetica;fontSize=12;fontColor=default;labelBackgroundColor=default;exitX=0.5;exitY=1;exitDx=0;exitDy=0;exitPerimeter=0;" edge="1" parent="WIyWlLk6GJQsqaUBKTNV-1" source="Trn8S8U_fDd8YShinlyO-236" target="Trn8S8U_fDd8YShinlyO-102">
          <mxGeometry relative="1" as="geometry">
            <mxPoint x="1790" y="1250" as="sourcePoint" />
          </mxGeometry>
        </mxCell>
        <mxCell id="Trn8S8U_fDd8YShinlyO-95" value="도서의&amp;nbsp;&lt;div&gt;장바구니 버튼 클릭&lt;/div&gt;" style="rounded=0;whiteSpace=wrap;html=1;strokeColor=default;align=center;verticalAlign=middle;fontFamily=Helvetica;fontSize=12;fontColor=default;labelBackgroundColor=default;fillColor=default;" vertex="1" parent="WIyWlLk6GJQsqaUBKTNV-1">
          <mxGeometry x="1731" y="1100" width="120" height="60" as="geometry" />
        </mxCell>
        <mxCell id="Trn8S8U_fDd8YShinlyO-105" value="Yes" style="edgeStyle=orthogonalEdgeStyle;rounded=0;orthogonalLoop=1;jettySize=auto;html=1;exitX=0.5;exitY=1;exitDx=0;exitDy=0;entryX=0.5;entryY=0;entryDx=0;entryDy=0;fontFamily=Helvetica;fontSize=12;fontColor=default;labelBackgroundColor=default;" edge="1" parent="WIyWlLk6GJQsqaUBKTNV-1" source="Trn8S8U_fDd8YShinlyO-102" target="Trn8S8U_fDd8YShinlyO-104">
          <mxGeometry x="-0.8721" relative="1" as="geometry">
            <mxPoint as="offset" />
          </mxGeometry>
        </mxCell>
        <mxCell id="Trn8S8U_fDd8YShinlyO-137" value="No" style="edgeStyle=orthogonalEdgeStyle;rounded=0;orthogonalLoop=1;jettySize=auto;html=1;fontFamily=Helvetica;fontSize=12;fontColor=default;labelBackgroundColor=default;exitX=1;exitY=0.5;exitDx=0;exitDy=0;" edge="1" parent="WIyWlLk6GJQsqaUBKTNV-1" source="Trn8S8U_fDd8YShinlyO-102" target="Trn8S8U_fDd8YShinlyO-134">
          <mxGeometry x="-0.8623" y="2" relative="1" as="geometry">
            <mxPoint x="1983" y="1352" as="sourcePoint" />
            <mxPoint x="2912" y="1357" as="targetPoint" />
            <Array as="points">
              <mxPoint x="2790" y="1352" />
              <mxPoint x="2790" y="1352" />
            </Array>
            <mxPoint as="offset" />
          </mxGeometry>
        </mxCell>
        <mxCell id="Trn8S8U_fDd8YShinlyO-102" value="계정이 로그인&lt;div&gt;상태인가&lt;/div&gt;" style="rhombus;whiteSpace=wrap;html=1;strokeColor=default;align=center;verticalAlign=middle;fontFamily=Helvetica;fontSize=12;fontColor=default;labelBackgroundColor=default;fillColor=default;" vertex="1" parent="WIyWlLk6GJQsqaUBKTNV-1">
          <mxGeometry x="1726" y="1312" width="130" height="80" as="geometry" />
        </mxCell>
        <mxCell id="Trn8S8U_fDd8YShinlyO-107" value="No" style="edgeStyle=orthogonalEdgeStyle;rounded=0;orthogonalLoop=1;jettySize=auto;html=1;exitX=0.5;exitY=1;exitDx=0;exitDy=0;entryX=0.5;entryY=0;entryDx=0;entryDy=0;fontFamily=Helvetica;fontSize=12;fontColor=default;labelBackgroundColor=default;" edge="1" parent="WIyWlLk6GJQsqaUBKTNV-1" source="Trn8S8U_fDd8YShinlyO-104" target="Trn8S8U_fDd8YShinlyO-106">
          <mxGeometry relative="1" as="geometry">
            <mxPoint x="2009.0200000000004" y="1870" as="sourcePoint" />
            <mxPoint x="2063" y="1872" as="targetPoint" />
          </mxGeometry>
        </mxCell>
        <mxCell id="Trn8S8U_fDd8YShinlyO-173" value="Yes" style="edgeStyle=orthogonalEdgeStyle;rounded=0;orthogonalLoop=1;jettySize=auto;html=1;exitX=1;exitY=0.5;exitDx=0;exitDy=0;entryX=0.5;entryY=0;entryDx=0;entryDy=0;fontFamily=Helvetica;fontSize=12;fontColor=default;labelBackgroundColor=default;" edge="1" parent="WIyWlLk6GJQsqaUBKTNV-1" source="Trn8S8U_fDd8YShinlyO-104" target="Trn8S8U_fDd8YShinlyO-108">
          <mxGeometry x="-0.8202" relative="1" as="geometry">
            <mxPoint as="offset" />
          </mxGeometry>
        </mxCell>
        <mxCell id="Trn8S8U_fDd8YShinlyO-104" value="기존에 상품이&lt;div&gt;담겨있었는가&lt;/div&gt;" style="rhombus;whiteSpace=wrap;html=1;strokeColor=default;align=center;verticalAlign=middle;fontFamily=Helvetica;fontSize=12;fontColor=default;labelBackgroundColor=default;fillColor=default;" vertex="1" parent="WIyWlLk6GJQsqaUBKTNV-1">
          <mxGeometry x="1726" y="1830" width="130" height="80" as="geometry" />
        </mxCell>
        <mxCell id="Trn8S8U_fDd8YShinlyO-172" style="edgeStyle=orthogonalEdgeStyle;rounded=0;orthogonalLoop=1;jettySize=auto;html=1;exitX=0.477;exitY=0.857;exitDx=0;exitDy=0;entryX=0;entryY=0.5;entryDx=0;entryDy=0;fontFamily=Helvetica;fontSize=12;fontColor=default;labelBackgroundColor=default;exitPerimeter=0;" edge="1" parent="WIyWlLk6GJQsqaUBKTNV-1" source="Trn8S8U_fDd8YShinlyO-106" target="Trn8S8U_fDd8YShinlyO-110">
          <mxGeometry relative="1" as="geometry">
            <Array as="points">
              <mxPoint x="1788" y="2180" />
            </Array>
          </mxGeometry>
        </mxCell>
        <mxCell id="Trn8S8U_fDd8YShinlyO-106" value="&quot;장바구니에 새상품 추가&quot;&lt;div&gt;팝업 출력&lt;/div&gt;" style="shape=document;whiteSpace=wrap;html=1;boundedLbl=1;strokeColor=default;align=center;verticalAlign=middle;fontFamily=Helvetica;fontSize=12;fontColor=default;labelBackgroundColor=default;fillColor=default;" vertex="1" parent="WIyWlLk6GJQsqaUBKTNV-1">
          <mxGeometry x="1716" y="2000" width="150" height="80" as="geometry" />
        </mxCell>
        <mxCell id="Trn8S8U_fDd8YShinlyO-112" style="edgeStyle=orthogonalEdgeStyle;rounded=0;orthogonalLoop=1;jettySize=auto;html=1;exitX=0.501;exitY=0.878;exitDx=0;exitDy=0;entryX=0.5;entryY=0;entryDx=0;entryDy=0;fontFamily=Helvetica;fontSize=12;fontColor=default;labelBackgroundColor=default;exitPerimeter=0;" edge="1" parent="WIyWlLk6GJQsqaUBKTNV-1" source="Trn8S8U_fDd8YShinlyO-108" target="Trn8S8U_fDd8YShinlyO-110">
          <mxGeometry relative="1" as="geometry" />
        </mxCell>
        <mxCell id="Trn8S8U_fDd8YShinlyO-108" value="&quot;장바구니에 새상품 추가&quot;&lt;div&gt;팝업 출력&lt;/div&gt;" style="shape=document;whiteSpace=wrap;html=1;boundedLbl=1;strokeColor=default;align=center;verticalAlign=middle;fontFamily=Helvetica;fontSize=12;fontColor=default;labelBackgroundColor=default;fillColor=default;" vertex="1" parent="WIyWlLk6GJQsqaUBKTNV-1">
          <mxGeometry x="1918" y="2000" width="150" height="80" as="geometry" />
        </mxCell>
        <mxCell id="Trn8S8U_fDd8YShinlyO-110" value="장바구니 아이콘&lt;div&gt;항목 보유 상태로 변경&lt;/div&gt;" style="shape=document;whiteSpace=wrap;html=1;boundedLbl=1;strokeColor=default;align=center;verticalAlign=middle;fontFamily=Helvetica;fontSize=12;fontColor=default;labelBackgroundColor=default;fillColor=default;" vertex="1" parent="WIyWlLk6GJQsqaUBKTNV-1">
          <mxGeometry x="1918" y="2140" width="150" height="80" as="geometry" />
        </mxCell>
        <mxCell id="Trn8S8U_fDd8YShinlyO-117" value="찜하기 클릭" style="rounded=0;whiteSpace=wrap;html=1;strokeColor=default;align=center;verticalAlign=middle;fontFamily=Helvetica;fontSize=12;fontColor=default;labelBackgroundColor=default;fillColor=default;" vertex="1" parent="WIyWlLk6GJQsqaUBKTNV-1">
          <mxGeometry x="2899" y="1180" width="120" height="60" as="geometry" />
        </mxCell>
        <mxCell id="Trn8S8U_fDd8YShinlyO-135" value="No" style="edgeStyle=orthogonalEdgeStyle;rounded=0;orthogonalLoop=1;jettySize=auto;html=1;exitX=1;exitY=0.5;exitDx=0;exitDy=0;fontFamily=Helvetica;fontSize=12;fontColor=default;labelBackgroundColor=default;" edge="1" parent="WIyWlLk6GJQsqaUBKTNV-1" source="Trn8S8U_fDd8YShinlyO-118" target="Trn8S8U_fDd8YShinlyO-134">
          <mxGeometry x="-0.7615" relative="1" as="geometry">
            <mxPoint as="offset" />
          </mxGeometry>
        </mxCell>
        <mxCell id="Trn8S8U_fDd8YShinlyO-118" value="계정이 로그인&lt;div&gt;상태인가&lt;/div&gt;" style="rhombus;whiteSpace=wrap;html=1;strokeColor=default;align=center;verticalAlign=middle;fontFamily=Helvetica;fontSize=12;fontColor=default;labelBackgroundColor=default;fillColor=default;" vertex="1" parent="WIyWlLk6GJQsqaUBKTNV-1">
          <mxGeometry x="2894" y="1542" width="130" height="80" as="geometry" />
        </mxCell>
        <mxCell id="Trn8S8U_fDd8YShinlyO-128" style="edgeStyle=orthogonalEdgeStyle;rounded=0;orthogonalLoop=1;jettySize=auto;html=1;exitX=0.733;exitY=-0.03;exitDx=0;exitDy=0;entryX=1;entryY=1;entryDx=0;entryDy=0;fontFamily=Helvetica;fontSize=12;fontColor=default;labelBackgroundColor=default;exitPerimeter=0;" edge="1" parent="WIyWlLk6GJQsqaUBKTNV-1" source="Trn8S8U_fDd8YShinlyO-122" target="Trn8S8U_fDd8YShinlyO-118">
          <mxGeometry relative="1" as="geometry">
            <Array as="points">
              <mxPoint x="2992" y="1890" />
              <mxPoint x="2992" y="1667" />
              <mxPoint x="2992" y="1667" />
            </Array>
          </mxGeometry>
        </mxCell>
        <mxCell id="Trn8S8U_fDd8YShinlyO-122" value="찜하기 &amp;amp; 찜한상태&lt;div&gt;토글&lt;/div&gt;" style="shape=parallelogram;perimeter=parallelogramPerimeter;whiteSpace=wrap;html=1;fixedSize=1;strokeColor=default;align=center;verticalAlign=middle;fontFamily=Helvetica;fontSize=12;fontColor=default;labelBackgroundColor=default;fillColor=default;" vertex="1" parent="WIyWlLk6GJQsqaUBKTNV-1">
          <mxGeometry x="2881" y="1892" width="150" height="60" as="geometry" />
        </mxCell>
        <mxCell id="Trn8S8U_fDd8YShinlyO-127" style="edgeStyle=orthogonalEdgeStyle;rounded=0;orthogonalLoop=1;jettySize=auto;html=1;exitX=0;exitY=1;exitDx=0;exitDy=0;entryX=0.302;entryY=0;entryDx=0;entryDy=0;entryPerimeter=0;fontFamily=Helvetica;fontSize=12;fontColor=default;labelBackgroundColor=default;" edge="1" parent="WIyWlLk6GJQsqaUBKTNV-1" source="Trn8S8U_fDd8YShinlyO-118" target="Trn8S8U_fDd8YShinlyO-122">
          <mxGeometry relative="1" as="geometry" />
        </mxCell>
        <mxCell id="Trn8S8U_fDd8YShinlyO-120" value="&quot;찜하기를 선택하셨습니다&quot;&lt;div&gt;팝업 출력&lt;/div&gt;" style="shape=document;whiteSpace=wrap;html=1;boundedLbl=1;strokeColor=default;align=center;verticalAlign=middle;fontFamily=Helvetica;fontSize=12;fontColor=default;labelBackgroundColor=default;fillColor=default;" vertex="1" parent="WIyWlLk6GJQsqaUBKTNV-1">
          <mxGeometry x="2880" y="1712" width="150" height="80" as="geometry" />
        </mxCell>
        <mxCell id="Trn8S8U_fDd8YShinlyO-130" value="Yes" style="text;html=1;align=center;verticalAlign=middle;whiteSpace=wrap;rounded=0;fontFamily=Helvetica;fontSize=12;fontColor=default;labelBackgroundColor=default;" vertex="1" parent="WIyWlLk6GJQsqaUBKTNV-1">
          <mxGeometry x="2899" y="1622" width="60" height="30" as="geometry" />
        </mxCell>
        <mxCell id="Trn8S8U_fDd8YShinlyO-136" style="edgeStyle=orthogonalEdgeStyle;rounded=0;orthogonalLoop=1;jettySize=auto;html=1;exitX=0.5;exitY=0;exitDx=0;exitDy=0;entryX=1;entryY=0.5;entryDx=0;entryDy=0;fontFamily=Helvetica;fontSize=12;fontColor=default;labelBackgroundColor=default;" edge="1" parent="WIyWlLk6GJQsqaUBKTNV-1" source="Trn8S8U_fDd8YShinlyO-134" target="Trn8S8U_fDd8YShinlyO-38">
          <mxGeometry relative="1" as="geometry">
            <Array as="points">
              <mxPoint x="3170" y="1317" />
              <mxPoint x="3170" y="975" />
            </Array>
          </mxGeometry>
        </mxCell>
        <mxCell id="Trn8S8U_fDd8YShinlyO-134" value="&quot;로그인이 필요합니다&quot;&lt;div&gt;프롬프트 출력&lt;/div&gt;" style="shape=document;whiteSpace=wrap;html=1;boundedLbl=1;strokeColor=default;align=center;verticalAlign=middle;fontFamily=Helvetica;fontSize=12;fontColor=default;labelBackgroundColor=default;fillColor=default;" vertex="1" parent="WIyWlLk6GJQsqaUBKTNV-1">
          <mxGeometry x="3094" y="1317" width="150" height="80" as="geometry" />
        </mxCell>
        <mxCell id="Trn8S8U_fDd8YShinlyO-147" value="No" style="edgeStyle=orthogonalEdgeStyle;rounded=0;orthogonalLoop=1;jettySize=auto;html=1;exitX=0;exitY=0.5;exitDx=0;exitDy=0;fontFamily=Helvetica;fontSize=12;fontColor=default;labelBackgroundColor=default;entryX=1;entryY=0.5;entryDx=0;entryDy=0;" edge="1" parent="WIyWlLk6GJQsqaUBKTNV-1" source="Trn8S8U_fDd8YShinlyO-143" target="Trn8S8U_fDd8YShinlyO-151">
          <mxGeometry relative="1" as="geometry">
            <mxPoint x="2312" y="1297" as="targetPoint" />
          </mxGeometry>
        </mxCell>
        <mxCell id="Trn8S8U_fDd8YShinlyO-150" value="Yes" style="edgeStyle=orthogonalEdgeStyle;rounded=0;orthogonalLoop=1;jettySize=auto;html=1;exitX=0.5;exitY=1;exitDx=0;exitDy=0;fontFamily=Helvetica;fontSize=12;fontColor=default;labelBackgroundColor=default;" edge="1" parent="WIyWlLk6GJQsqaUBKTNV-1" source="Trn8S8U_fDd8YShinlyO-143" target="Trn8S8U_fDd8YShinlyO-149">
          <mxGeometry x="-0.5714" relative="1" as="geometry">
            <mxPoint as="offset" />
          </mxGeometry>
        </mxCell>
        <mxCell id="Trn8S8U_fDd8YShinlyO-143" value="계정이 로그인&lt;div&gt;상태인가&lt;/div&gt;" style="rhombus;whiteSpace=wrap;html=1;strokeColor=default;align=center;verticalAlign=middle;fontFamily=Helvetica;fontSize=12;fontColor=default;labelBackgroundColor=default;fillColor=default;" vertex="1" parent="WIyWlLk6GJQsqaUBKTNV-1">
          <mxGeometry x="2247" y="1408" width="130" height="80" as="geometry" />
        </mxCell>
        <mxCell id="Trn8S8U_fDd8YShinlyO-155" style="edgeStyle=orthogonalEdgeStyle;rounded=0;orthogonalLoop=1;jettySize=auto;html=1;exitX=0.5;exitY=1;exitDx=0;exitDy=0;entryX=0.5;entryY=0;entryDx=0;entryDy=0;fontFamily=Helvetica;fontSize=12;fontColor=default;labelBackgroundColor=default;" edge="1" parent="WIyWlLk6GJQsqaUBKTNV-1" source="Trn8S8U_fDd8YShinlyO-149" target="Trn8S8U_fDd8YShinlyO-154">
          <mxGeometry relative="1" as="geometry" />
        </mxCell>
        <mxCell id="Trn8S8U_fDd8YShinlyO-149" value="상단의&lt;div&gt;장바구니 아이콘&lt;div&gt;활성화&lt;/div&gt;&lt;/div&gt;" style="shape=parallelogram;perimeter=parallelogramPerimeter;whiteSpace=wrap;html=1;fixedSize=1;strokeColor=default;align=center;verticalAlign=middle;fontFamily=Helvetica;fontSize=12;fontColor=default;labelBackgroundColor=default;fillColor=default;" vertex="1" parent="WIyWlLk6GJQsqaUBKTNV-1">
          <mxGeometry x="2252" y="1642" width="120" height="60" as="geometry" />
        </mxCell>
        <mxCell id="Trn8S8U_fDd8YShinlyO-165" style="edgeStyle=orthogonalEdgeStyle;rounded=0;orthogonalLoop=1;jettySize=auto;html=1;exitX=0.5;exitY=0;exitDx=0;exitDy=0;fontFamily=Helvetica;fontSize=12;fontColor=default;labelBackgroundColor=default;" edge="1" parent="WIyWlLk6GJQsqaUBKTNV-1" source="Trn8S8U_fDd8YShinlyO-151" target="Trn8S8U_fDd8YShinlyO-134">
          <mxGeometry relative="1" as="geometry">
            <mxPoint x="2098.0000000000005" y="1232" as="sourcePoint" />
            <mxPoint x="2912" y="1352" as="targetPoint" />
            <Array as="points">
              <mxPoint x="2098" y="1352" />
            </Array>
          </mxGeometry>
        </mxCell>
        <mxCell id="Trn8S8U_fDd8YShinlyO-151" value="상단의&amp;nbsp;&lt;div&gt;장바구니 아이콘&lt;div&gt;비활성화 유지&lt;/div&gt;&lt;/div&gt;" style="shape=parallelogram;perimeter=parallelogramPerimeter;whiteSpace=wrap;html=1;fixedSize=1;strokeColor=default;align=center;verticalAlign=middle;fontFamily=Helvetica;fontSize=12;fontColor=default;labelBackgroundColor=default;fillColor=default;" vertex="1" parent="WIyWlLk6GJQsqaUBKTNV-1">
          <mxGeometry x="2038" y="1417" width="120" height="60" as="geometry" />
        </mxCell>
        <mxCell id="Trn8S8U_fDd8YShinlyO-175" style="edgeStyle=orthogonalEdgeStyle;rounded=0;orthogonalLoop=1;jettySize=auto;html=1;exitX=0;exitY=0.5;exitDx=0;exitDy=0;fontFamily=Helvetica;fontSize=12;fontColor=default;labelBackgroundColor=default;" edge="1" parent="WIyWlLk6GJQsqaUBKTNV-1" source="Trn8S8U_fDd8YShinlyO-154">
          <mxGeometry relative="1" as="geometry">
            <mxPoint x="1800" y="1761.904761904762" as="targetPoint" />
          </mxGeometry>
        </mxCell>
        <mxCell id="Trn8S8U_fDd8YShinlyO-178" style="edgeStyle=orthogonalEdgeStyle;rounded=0;orthogonalLoop=1;jettySize=auto;html=1;exitX=0.5;exitY=1;exitDx=0;exitDy=0;entryX=0.5;entryY=0;entryDx=0;entryDy=0;fontFamily=Helvetica;fontSize=12;fontColor=default;labelBackgroundColor=default;" edge="1" parent="WIyWlLk6GJQsqaUBKTNV-1" source="Trn8S8U_fDd8YShinlyO-154" target="Trn8S8U_fDd8YShinlyO-176">
          <mxGeometry relative="1" as="geometry" />
        </mxCell>
        <mxCell id="Trn8S8U_fDd8YShinlyO-154" value="상단의&lt;div&gt;장바구니 아이콘&lt;/div&gt;&lt;div&gt;클릭&lt;/div&gt;" style="rounded=0;whiteSpace=wrap;html=1;strokeColor=default;align=center;verticalAlign=middle;fontFamily=Helvetica;fontSize=12;fontColor=default;labelBackgroundColor=default;fillColor=default;" vertex="1" parent="WIyWlLk6GJQsqaUBKTNV-1">
          <mxGeometry x="2247" y="1732" width="120" height="60" as="geometry" />
        </mxCell>
        <mxCell id="Trn8S8U_fDd8YShinlyO-187" style="edgeStyle=orthogonalEdgeStyle;rounded=0;orthogonalLoop=1;jettySize=auto;html=1;exitX=0.25;exitY=1;exitDx=0;exitDy=0;entryX=0.5;entryY=0;entryDx=0;entryDy=0;fontFamily=Helvetica;fontSize=12;fontColor=#ff0000;labelBackgroundColor=default;fillColor=#f8cecc;strokeColor=#b85450;" edge="1" parent="WIyWlLk6GJQsqaUBKTNV-1" source="Trn8S8U_fDd8YShinlyO-166" target="Trn8S8U_fDd8YShinlyO-182">
          <mxGeometry relative="1" as="geometry" />
        </mxCell>
        <mxCell id="Trn8S8U_fDd8YShinlyO-198" style="edgeStyle=orthogonalEdgeStyle;rounded=0;orthogonalLoop=1;jettySize=auto;html=1;exitX=0.5;exitY=1;exitDx=0;exitDy=0;entryX=0.5;entryY=0;entryDx=0;entryDy=0;fontFamily=Helvetica;fontSize=12;fontColor=default;labelBackgroundColor=default;fillColor=#dae8fc;strokeColor=#6c8ebf;" edge="1" parent="WIyWlLk6GJQsqaUBKTNV-1" source="Trn8S8U_fDd8YShinlyO-166" target="Trn8S8U_fDd8YShinlyO-191">
          <mxGeometry relative="1" as="geometry">
            <Array as="points">
              <mxPoint x="2312" y="2060" />
              <mxPoint x="2590" y="2060" />
            </Array>
          </mxGeometry>
        </mxCell>
        <mxCell id="Trn8S8U_fDd8YShinlyO-166" value="빈 장바구니 팝업&lt;div&gt;(비우기 버튼, 삭제 버튼, 닫기 버튼),&lt;/div&gt;&lt;div&gt;총금액 0원,&lt;br&gt;&lt;div&gt;쿠폰입력칸, 쿠폰적용버튼 출력&lt;/div&gt;&lt;/div&gt;" style="shape=parallelogram;perimeter=parallelogramPerimeter;whiteSpace=wrap;html=1;fixedSize=1;strokeColor=default;align=center;verticalAlign=middle;fontFamily=Helvetica;fontSize=12;fontColor=default;labelBackgroundColor=default;fillColor=default;" vertex="1" parent="WIyWlLk6GJQsqaUBKTNV-1">
          <mxGeometry x="2199" y="1980" width="226" height="60" as="geometry" />
        </mxCell>
        <mxCell id="Trn8S8U_fDd8YShinlyO-176" value="상품이&lt;div&gt;장바구니에&lt;/div&gt;&lt;div&gt;담겨있는가&lt;/div&gt;" style="rhombus;whiteSpace=wrap;html=1;strokeColor=default;align=center;verticalAlign=middle;fontFamily=Helvetica;fontSize=12;fontColor=default;labelBackgroundColor=default;fillColor=default;" vertex="1" parent="WIyWlLk6GJQsqaUBKTNV-1">
          <mxGeometry x="2242" y="1840" width="130" height="80" as="geometry" />
        </mxCell>
        <mxCell id="Trn8S8U_fDd8YShinlyO-179" value="No" style="edgeStyle=orthogonalEdgeStyle;rounded=0;orthogonalLoop=1;jettySize=auto;html=1;exitX=0.5;exitY=1;exitDx=0;exitDy=0;entryX=0.48;entryY=0;entryDx=0;entryDy=0;entryPerimeter=0;fontFamily=Helvetica;fontSize=12;fontColor=default;labelBackgroundColor=default;" edge="1" parent="WIyWlLk6GJQsqaUBKTNV-1" source="Trn8S8U_fDd8YShinlyO-176" target="Trn8S8U_fDd8YShinlyO-166">
          <mxGeometry relative="1" as="geometry" />
        </mxCell>
        <mxCell id="Trn8S8U_fDd8YShinlyO-185" style="edgeStyle=orthogonalEdgeStyle;rounded=0;orthogonalLoop=1;jettySize=auto;html=1;exitX=0.25;exitY=1;exitDx=0;exitDy=0;entryX=0.5;entryY=0;entryDx=0;entryDy=0;fontFamily=Helvetica;fontSize=12;fontColor=#ff0000;labelBackgroundColor=default;fillColor=#f8cecc;strokeColor=#b85450;" edge="1" parent="WIyWlLk6GJQsqaUBKTNV-1" source="Trn8S8U_fDd8YShinlyO-180" target="Trn8S8U_fDd8YShinlyO-182">
          <mxGeometry relative="1" as="geometry">
            <Array as="points">
              <mxPoint x="2517" y="2070" />
              <mxPoint x="2255" y="2070" />
            </Array>
          </mxGeometry>
        </mxCell>
        <mxCell id="Trn8S8U_fDd8YShinlyO-199" style="edgeStyle=orthogonalEdgeStyle;rounded=0;orthogonalLoop=1;jettySize=auto;html=1;exitX=0.75;exitY=1;exitDx=0;exitDy=0;entryX=0.5;entryY=0;entryDx=0;entryDy=0;fontFamily=Helvetica;fontSize=12;fontColor=default;labelBackgroundColor=default;fillColor=#dae8fc;strokeColor=#6c8ebf;" edge="1" parent="WIyWlLk6GJQsqaUBKTNV-1" source="Trn8S8U_fDd8YShinlyO-180" target="Trn8S8U_fDd8YShinlyO-191">
          <mxGeometry relative="1" as="geometry">
            <Array as="points">
              <mxPoint x="2629" y="2060" />
              <mxPoint x="2590" y="2060" />
            </Array>
          </mxGeometry>
        </mxCell>
        <mxCell id="Trn8S8U_fDd8YShinlyO-180" value="항목이 존재하는 장바구니 팝업&lt;div&gt;(비우기 버튼, 삭제 버튼, 닫기 버튼),&lt;br&gt;총금액 (계산된 금액),&lt;br&gt;&lt;div&gt;쿠폰입력칸, 쿠폰적용버튼 출력&lt;/div&gt;&lt;/div&gt;" style="shape=parallelogram;perimeter=parallelogramPerimeter;whiteSpace=wrap;html=1;fixedSize=1;strokeColor=default;align=center;verticalAlign=middle;fontFamily=Helvetica;fontSize=12;fontColor=default;labelBackgroundColor=default;fillColor=default;" vertex="1" parent="WIyWlLk6GJQsqaUBKTNV-1">
          <mxGeometry x="2460" y="1980" width="226" height="60" as="geometry" />
        </mxCell>
        <mxCell id="Trn8S8U_fDd8YShinlyO-181" value="Yes" style="edgeStyle=orthogonalEdgeStyle;rounded=0;orthogonalLoop=1;jettySize=auto;html=1;exitX=1;exitY=0.5;exitDx=0;exitDy=0;entryX=0.575;entryY=0;entryDx=0;entryDy=0;entryPerimeter=0;fontFamily=Helvetica;fontSize=12;fontColor=default;labelBackgroundColor=default;" edge="1" parent="WIyWlLk6GJQsqaUBKTNV-1" source="Trn8S8U_fDd8YShinlyO-176" target="Trn8S8U_fDd8YShinlyO-180">
          <mxGeometry x="-0.8238" relative="1" as="geometry">
            <mxPoint as="offset" />
          </mxGeometry>
        </mxCell>
        <mxCell id="Trn8S8U_fDd8YShinlyO-189" style="edgeStyle=orthogonalEdgeStyle;rounded=0;orthogonalLoop=1;jettySize=auto;html=1;exitX=0;exitY=0.5;exitDx=0;exitDy=0;entryX=0;entryY=0.5;entryDx=0;entryDy=0;fontFamily=Helvetica;fontSize=12;fontColor=default;labelBackgroundColor=default;" edge="1" parent="WIyWlLk6GJQsqaUBKTNV-1" source="Trn8S8U_fDd8YShinlyO-182" target="Trn8S8U_fDd8YShinlyO-166">
          <mxGeometry relative="1" as="geometry">
            <Array as="points">
              <mxPoint x="2175" y="2240" />
              <mxPoint x="2175" y="2010" />
            </Array>
          </mxGeometry>
        </mxCell>
        <mxCell id="Trn8S8U_fDd8YShinlyO-182" value="비우기 버튼 클릭" style="rounded=0;whiteSpace=wrap;html=1;strokeColor=default;align=center;verticalAlign=middle;fontFamily=Helvetica;fontSize=12;fontColor=default;labelBackgroundColor=default;fillColor=default;" vertex="1" parent="WIyWlLk6GJQsqaUBKTNV-1">
          <mxGeometry x="2195" y="2210" width="120" height="60" as="geometry" />
        </mxCell>
        <mxCell id="Trn8S8U_fDd8YShinlyO-196" style="edgeStyle=orthogonalEdgeStyle;rounded=0;orthogonalLoop=1;jettySize=auto;html=1;exitX=0.5;exitY=1;exitDx=0;exitDy=0;entryX=0.5;entryY=0;entryDx=0;entryDy=0;fontFamily=Helvetica;fontSize=12;fontColor=default;labelBackgroundColor=default;" edge="1" parent="WIyWlLk6GJQsqaUBKTNV-1" source="Trn8S8U_fDd8YShinlyO-190" target="Trn8S8U_fDd8YShinlyO-195">
          <mxGeometry relative="1" as="geometry" />
        </mxCell>
        <mxCell id="Trn8S8U_fDd8YShinlyO-190" value="삭제 버튼 클릭" style="rounded=0;whiteSpace=wrap;html=1;strokeColor=default;align=center;verticalAlign=middle;fontFamily=Helvetica;fontSize=12;fontColor=default;labelBackgroundColor=default;fillColor=default;" vertex="1" parent="WIyWlLk6GJQsqaUBKTNV-1">
          <mxGeometry x="2350" y="2210" width="120" height="60" as="geometry" />
        </mxCell>
        <mxCell id="Trn8S8U_fDd8YShinlyO-202" style="edgeStyle=orthogonalEdgeStyle;rounded=0;orthogonalLoop=1;jettySize=auto;html=1;exitX=1;exitY=0.5;exitDx=0;exitDy=0;entryX=1;entryY=0.5;entryDx=0;entryDy=0;fontFamily=Helvetica;fontSize=12;fontColor=default;labelBackgroundColor=default;" edge="1" parent="WIyWlLk6GJQsqaUBKTNV-1" source="Trn8S8U_fDd8YShinlyO-191" target="Trn8S8U_fDd8YShinlyO-149">
          <mxGeometry relative="1" as="geometry">
            <Array as="points">
              <mxPoint x="2710" y="2240" />
              <mxPoint x="2710" y="1672" />
            </Array>
          </mxGeometry>
        </mxCell>
        <mxCell id="Trn8S8U_fDd8YShinlyO-191" value="닫기 버튼 클릭" style="rounded=0;whiteSpace=wrap;html=1;strokeColor=default;align=center;verticalAlign=middle;fontFamily=Helvetica;fontSize=12;fontColor=default;labelBackgroundColor=default;fillColor=default;" vertex="1" parent="WIyWlLk6GJQsqaUBKTNV-1">
          <mxGeometry x="2530" y="2210" width="120" height="60" as="geometry" />
        </mxCell>
        <mxCell id="Trn8S8U_fDd8YShinlyO-192" style="edgeStyle=orthogonalEdgeStyle;rounded=0;orthogonalLoop=1;jettySize=auto;html=1;exitX=0.75;exitY=1;exitDx=0;exitDy=0;entryX=0.158;entryY=0;entryDx=0;entryDy=0;entryPerimeter=0;fontFamily=Helvetica;fontSize=12;fontColor=default;labelBackgroundColor=default;" edge="1" parent="WIyWlLk6GJQsqaUBKTNV-1">
          <mxGeometry relative="1" as="geometry">
            <mxPoint x="2369.499999999999" y="2040.0000000000005" as="sourcePoint" />
            <mxPoint x="2369.96" y="2210" as="targetPoint" />
            <Array as="points">
              <mxPoint x="2370" y="2125" />
            </Array>
          </mxGeometry>
        </mxCell>
        <mxCell id="Trn8S8U_fDd8YShinlyO-194" style="edgeStyle=orthogonalEdgeStyle;rounded=0;orthogonalLoop=1;jettySize=auto;html=1;exitX=0.5;exitY=1;exitDx=0;exitDy=0;entryX=0.167;entryY=0.017;entryDx=0;entryDy=0;entryPerimeter=0;fontFamily=Helvetica;fontSize=12;fontColor=default;labelBackgroundColor=default;" edge="1" parent="WIyWlLk6GJQsqaUBKTNV-1" source="Trn8S8U_fDd8YShinlyO-180" target="Trn8S8U_fDd8YShinlyO-190">
          <mxGeometry relative="1" as="geometry">
            <Array as="points">
              <mxPoint x="2573" y="2080" />
              <mxPoint x="2370" y="2080" />
            </Array>
          </mxGeometry>
        </mxCell>
        <mxCell id="Trn8S8U_fDd8YShinlyO-197" value="No" style="edgeStyle=orthogonalEdgeStyle;rounded=0;orthogonalLoop=1;jettySize=auto;html=1;exitX=0;exitY=0.5;exitDx=0;exitDy=0;entryX=0;entryY=0.5;entryDx=0;entryDy=0;fontFamily=Helvetica;fontSize=12;fontColor=default;labelBackgroundColor=default;" edge="1" parent="WIyWlLk6GJQsqaUBKTNV-1" source="Trn8S8U_fDd8YShinlyO-195" target="Trn8S8U_fDd8YShinlyO-166">
          <mxGeometry x="-0.9423" relative="1" as="geometry">
            <Array as="points">
              <mxPoint x="2150" y="2430" />
              <mxPoint x="2150" y="2010" />
            </Array>
            <mxPoint as="offset" />
          </mxGeometry>
        </mxCell>
        <mxCell id="Trn8S8U_fDd8YShinlyO-201" value="Yes" style="edgeStyle=orthogonalEdgeStyle;rounded=0;orthogonalLoop=1;jettySize=auto;html=1;exitX=1;exitY=0.5;exitDx=0;exitDy=0;entryX=1;entryY=0.5;entryDx=0;entryDy=0;fontFamily=Helvetica;fontSize=12;fontColor=default;labelBackgroundColor=default;fillColor=#fff2cc;strokeColor=#d6b656;" edge="1" parent="WIyWlLk6GJQsqaUBKTNV-1" source="Trn8S8U_fDd8YShinlyO-195" target="Trn8S8U_fDd8YShinlyO-180">
          <mxGeometry x="-0.933" relative="1" as="geometry">
            <Array as="points">
              <mxPoint x="3240" y="2430" />
              <mxPoint x="3240" y="2010" />
            </Array>
            <mxPoint as="offset" />
          </mxGeometry>
        </mxCell>
        <mxCell id="Trn8S8U_fDd8YShinlyO-195" value="장바구니 팝업에&lt;div&gt;상품이 존재하는가&lt;/div&gt;" style="rhombus;whiteSpace=wrap;html=1;strokeColor=default;align=center;verticalAlign=middle;fontFamily=Helvetica;fontSize=12;fontColor=default;labelBackgroundColor=default;fillColor=default;" vertex="1" parent="WIyWlLk6GJQsqaUBKTNV-1">
          <mxGeometry x="2337.5" y="2380" width="145" height="100" as="geometry" />
        </mxCell>
        <mxCell id="Trn8S8U_fDd8YShinlyO-215" style="edgeStyle=orthogonalEdgeStyle;rounded=0;orthogonalLoop=1;jettySize=auto;html=1;exitX=0.5;exitY=1;exitDx=0;exitDy=0;entryX=0.5;entryY=0;entryDx=0;entryDy=0;fontFamily=Helvetica;fontSize=12;fontColor=default;labelBackgroundColor=default;" edge="1" parent="WIyWlLk6GJQsqaUBKTNV-1" source="Trn8S8U_fDd8YShinlyO-210" target="Trn8S8U_fDd8YShinlyO-214">
          <mxGeometry relative="1" as="geometry" />
        </mxCell>
        <mxCell id="Trn8S8U_fDd8YShinlyO-210" value="쿠폰 적용 버튼 클릭" style="rounded=0;whiteSpace=wrap;html=1;strokeColor=default;align=center;verticalAlign=middle;fontFamily=Helvetica;fontSize=12;fontColor=default;labelBackgroundColor=default;fillColor=default;" vertex="1" parent="WIyWlLk6GJQsqaUBKTNV-1">
          <mxGeometry x="2885" y="2090" width="120" height="60" as="geometry" />
        </mxCell>
        <mxCell id="Trn8S8U_fDd8YShinlyO-217" value="No" style="edgeStyle=orthogonalEdgeStyle;rounded=0;orthogonalLoop=1;jettySize=auto;html=1;exitX=0.5;exitY=1;exitDx=0;exitDy=0;entryX=0.5;entryY=0;entryDx=0;entryDy=0;fontFamily=Helvetica;fontSize=12;fontColor=default;labelBackgroundColor=default;" edge="1" parent="WIyWlLk6GJQsqaUBKTNV-1" source="Trn8S8U_fDd8YShinlyO-214" target="Trn8S8U_fDd8YShinlyO-216">
          <mxGeometry relative="1" as="geometry" />
        </mxCell>
        <mxCell id="Trn8S8U_fDd8YShinlyO-225" value="Yes" style="edgeStyle=orthogonalEdgeStyle;rounded=0;orthogonalLoop=1;jettySize=auto;html=1;exitX=1;exitY=0.5;exitDx=0;exitDy=0;entryX=0;entryY=0.5;entryDx=0;entryDy=0;fontFamily=Helvetica;fontSize=12;fontColor=default;labelBackgroundColor=default;" edge="1" parent="WIyWlLk6GJQsqaUBKTNV-1" source="Trn8S8U_fDd8YShinlyO-214" target="Trn8S8U_fDd8YShinlyO-224">
          <mxGeometry relative="1" as="geometry" />
        </mxCell>
        <mxCell id="Trn8S8U_fDd8YShinlyO-214" value="쿠폰번호가&lt;div&gt;일치하는가&lt;/div&gt;" style="rhombus;whiteSpace=wrap;html=1;strokeColor=default;align=center;verticalAlign=middle;fontFamily=Helvetica;fontSize=12;fontColor=default;labelBackgroundColor=default;fillColor=default;" vertex="1" parent="WIyWlLk6GJQsqaUBKTNV-1">
          <mxGeometry x="2872.5" y="2180" width="145" height="100" as="geometry" />
        </mxCell>
        <mxCell id="Trn8S8U_fDd8YShinlyO-280" style="edgeStyle=orthogonalEdgeStyle;rounded=0;orthogonalLoop=1;jettySize=auto;html=1;exitX=0;exitY=0.5;exitDx=0;exitDy=0;entryX=0.5;entryY=1;entryDx=0;entryDy=0;fontFamily=Helvetica;fontSize=12;fontColor=default;labelBackgroundColor=default;" edge="1" parent="WIyWlLk6GJQsqaUBKTNV-1" source="Trn8S8U_fDd8YShinlyO-216" target="Trn8S8U_fDd8YShinlyO-274">
          <mxGeometry relative="1" as="geometry" />
        </mxCell>
        <mxCell id="Trn8S8U_fDd8YShinlyO-216" value="&quot;유효하지 않은&amp;nbsp;&lt;div&gt;쿠폰 코드입니다&quot;&lt;div&gt;프롬프트 출력&lt;/div&gt;&lt;/div&gt;" style="shape=document;whiteSpace=wrap;html=1;boundedLbl=1;strokeColor=default;align=center;verticalAlign=middle;fontFamily=Helvetica;fontSize=12;fontColor=default;labelBackgroundColor=default;fillColor=default;" vertex="1" parent="WIyWlLk6GJQsqaUBKTNV-1">
          <mxGeometry x="2870" y="2330" width="150" height="80" as="geometry" />
        </mxCell>
        <mxCell id="Trn8S8U_fDd8YShinlyO-228" style="edgeStyle=orthogonalEdgeStyle;rounded=0;orthogonalLoop=1;jettySize=auto;html=1;exitX=0.5;exitY=0;exitDx=0;exitDy=0;entryX=1;entryY=0.5;entryDx=0;entryDy=0;fontFamily=Helvetica;fontSize=12;fontColor=default;labelBackgroundColor=default;fillColor=#fff2cc;strokeColor=#d6b656;" edge="1" parent="WIyWlLk6GJQsqaUBKTNV-1" source="Trn8S8U_fDd8YShinlyO-221" target="Trn8S8U_fDd8YShinlyO-180">
          <mxGeometry relative="1" as="geometry">
            <Array as="points">
              <mxPoint x="3150" y="2090" />
              <mxPoint x="3150" y="2010" />
            </Array>
          </mxGeometry>
        </mxCell>
        <mxCell id="Trn8S8U_fDd8YShinlyO-221" value="총금액&amp;nbsp;&lt;div&gt;할인된 금액으로&amp;nbsp;&lt;/div&gt;&lt;div&gt;변경&lt;/div&gt;" style="shape=parallelogram;perimeter=parallelogramPerimeter;whiteSpace=wrap;html=1;fixedSize=1;strokeColor=default;align=center;verticalAlign=middle;fontFamily=Helvetica;fontSize=12;fontColor=default;labelBackgroundColor=default;fillColor=default;" vertex="1" parent="WIyWlLk6GJQsqaUBKTNV-1">
          <mxGeometry x="3090" y="2090" width="130" height="60" as="geometry" />
        </mxCell>
        <mxCell id="Trn8S8U_fDd8YShinlyO-227" style="edgeStyle=orthogonalEdgeStyle;rounded=0;orthogonalLoop=1;jettySize=auto;html=1;exitX=0.5;exitY=0;exitDx=0;exitDy=0;entryX=0.5;entryY=1;entryDx=0;entryDy=0;fontFamily=Helvetica;fontSize=12;fontColor=default;labelBackgroundColor=default;" edge="1" parent="WIyWlLk6GJQsqaUBKTNV-1" source="Trn8S8U_fDd8YShinlyO-224" target="Trn8S8U_fDd8YShinlyO-221">
          <mxGeometry relative="1" as="geometry" />
        </mxCell>
        <mxCell id="Trn8S8U_fDd8YShinlyO-224" value="&quot;쿠폰이 적용되었습니다. 10% 할인이 적용됩니다.&quot;&lt;div&gt;프롬프트 출력&lt;/div&gt;" style="shape=document;whiteSpace=wrap;html=1;boundedLbl=1;strokeColor=default;align=center;verticalAlign=middle;fontFamily=Helvetica;fontSize=12;fontColor=default;labelBackgroundColor=default;fillColor=default;" vertex="1" parent="WIyWlLk6GJQsqaUBKTNV-1">
          <mxGeometry x="3080" y="2190" width="150" height="80" as="geometry" />
        </mxCell>
        <mxCell id="Trn8S8U_fDd8YShinlyO-233" style="edgeStyle=orthogonalEdgeStyle;rounded=0;orthogonalLoop=1;jettySize=auto;html=1;exitX=1;exitY=0.75;exitDx=0;exitDy=0;entryX=0;entryY=0.75;entryDx=0;entryDy=0;fontFamily=Helvetica;fontSize=12;fontColor=default;labelBackgroundColor=default;" edge="1" parent="WIyWlLk6GJQsqaUBKTNV-1" source="Trn8S8U_fDd8YShinlyO-229" target="Trn8S8U_fDd8YShinlyO-231">
          <mxGeometry relative="1" as="geometry">
            <Array as="points">
              <mxPoint x="757" y="1349" />
              <mxPoint x="777" y="1349" />
            </Array>
          </mxGeometry>
        </mxCell>
        <mxCell id="Trn8S8U_fDd8YShinlyO-229" value="이전버튼,&amp;nbsp;&lt;div&gt;취소버튼 클릭&lt;/div&gt;" style="rounded=0;whiteSpace=wrap;html=1;strokeColor=default;align=center;verticalAlign=middle;fontFamily=Helvetica;fontSize=12;fontColor=default;labelBackgroundColor=default;fillColor=default;" vertex="1" parent="WIyWlLk6GJQsqaUBKTNV-1">
          <mxGeometry x="637" y="1305" width="120" height="60" as="geometry" />
        </mxCell>
        <mxCell id="Trn8S8U_fDd8YShinlyO-231" value="페이지 전환" style="shape=parallelogram;perimeter=parallelogramPerimeter;whiteSpace=wrap;html=1;fixedSize=1;strokeColor=default;align=center;verticalAlign=middle;fontFamily=Helvetica;fontSize=12;fontColor=default;labelBackgroundColor=default;fillColor=default;" vertex="1" parent="WIyWlLk6GJQsqaUBKTNV-1">
          <mxGeometry x="793" y="1305" width="150" height="60" as="geometry" />
        </mxCell>
        <mxCell id="Trn8S8U_fDd8YShinlyO-235" style="edgeStyle=orthogonalEdgeStyle;rounded=0;orthogonalLoop=1;jettySize=auto;html=1;exitX=0;exitY=0.25;exitDx=0;exitDy=0;entryX=1.003;entryY=0.294;entryDx=0;entryDy=0;entryPerimeter=0;fontFamily=Helvetica;fontSize=12;fontColor=default;labelBackgroundColor=default;" edge="1" parent="WIyWlLk6GJQsqaUBKTNV-1" source="Trn8S8U_fDd8YShinlyO-231" target="Trn8S8U_fDd8YShinlyO-229">
          <mxGeometry relative="1" as="geometry" />
        </mxCell>
        <mxCell id="Trn8S8U_fDd8YShinlyO-236" value="계정이 존재하는가" style="shape=cylinder3;whiteSpace=wrap;html=1;boundedLbl=1;backgroundOutline=1;size=15;strokeColor=default;align=center;verticalAlign=top;fontFamily=Helvetica;fontSize=12;fontColor=default;labelBackgroundColor=default;fillColor=default;" vertex="1" parent="WIyWlLk6GJQsqaUBKTNV-1">
          <mxGeometry x="1731" y="1190" width="120" height="80" as="geometry" />
        </mxCell>
        <mxCell id="Trn8S8U_fDd8YShinlyO-237" style="edgeStyle=orthogonalEdgeStyle;rounded=0;orthogonalLoop=1;jettySize=auto;html=1;exitX=0.5;exitY=1;exitDx=0;exitDy=0;entryX=0.5;entryY=0;entryDx=0;entryDy=0;entryPerimeter=0;fontFamily=Helvetica;fontSize=12;fontColor=default;labelBackgroundColor=default;" edge="1" parent="WIyWlLk6GJQsqaUBKTNV-1" source="Trn8S8U_fDd8YShinlyO-95" target="Trn8S8U_fDd8YShinlyO-236">
          <mxGeometry relative="1" as="geometry" />
        </mxCell>
        <mxCell id="Trn8S8U_fDd8YShinlyO-240" value="Yes" style="edgeStyle=orthogonalEdgeStyle;rounded=0;orthogonalLoop=1;jettySize=auto;html=1;exitX=0.5;exitY=1;exitDx=0;exitDy=0;exitPerimeter=0;entryX=0.5;entryY=0;entryDx=0;entryDy=0;fontFamily=Helvetica;fontSize=12;fontColor=default;labelBackgroundColor=default;" edge="1" parent="WIyWlLk6GJQsqaUBKTNV-1" source="Trn8S8U_fDd8YShinlyO-238" target="Trn8S8U_fDd8YShinlyO-118">
          <mxGeometry relative="1" as="geometry" />
        </mxCell>
        <mxCell id="Trn8S8U_fDd8YShinlyO-238" value="계정이 존재하는가" style="shape=cylinder3;whiteSpace=wrap;html=1;boundedLbl=1;backgroundOutline=1;size=15;strokeColor=default;align=center;verticalAlign=top;fontFamily=Helvetica;fontSize=12;fontColor=default;labelBackgroundColor=default;fillColor=default;" vertex="1" parent="WIyWlLk6GJQsqaUBKTNV-1">
          <mxGeometry x="2899" y="1410" width="120" height="80" as="geometry" />
        </mxCell>
        <mxCell id="Trn8S8U_fDd8YShinlyO-239" style="edgeStyle=orthogonalEdgeStyle;rounded=0;orthogonalLoop=1;jettySize=auto;html=1;exitX=0.5;exitY=1;exitDx=0;exitDy=0;entryX=0.5;entryY=0;entryDx=0;entryDy=0;entryPerimeter=0;fontFamily=Helvetica;fontSize=12;fontColor=default;labelBackgroundColor=default;" edge="1" parent="WIyWlLk6GJQsqaUBKTNV-1" source="Trn8S8U_fDd8YShinlyO-117" target="Trn8S8U_fDd8YShinlyO-238">
          <mxGeometry relative="1" as="geometry" />
        </mxCell>
        <mxCell id="Trn8S8U_fDd8YShinlyO-376" style="edgeStyle=orthogonalEdgeStyle;rounded=0;orthogonalLoop=1;jettySize=auto;html=1;exitX=0.5;exitY=1;exitDx=0;exitDy=0;exitPerimeter=0;entryX=0.5;entryY=0;entryDx=0;entryDy=0;fontFamily=Helvetica;fontSize=12;fontColor=default;labelBackgroundColor=default;" edge="1" parent="WIyWlLk6GJQsqaUBKTNV-1" source="Trn8S8U_fDd8YShinlyO-241" target="Trn8S8U_fDd8YShinlyO-143">
          <mxGeometry relative="1" as="geometry" />
        </mxCell>
        <mxCell id="Trn8S8U_fDd8YShinlyO-241" value="계정이 존재하는가" style="shape=cylinder3;whiteSpace=wrap;html=1;boundedLbl=1;backgroundOutline=1;size=15;strokeColor=default;align=center;verticalAlign=top;fontFamily=Helvetica;fontSize=12;fontColor=default;labelBackgroundColor=default;fillColor=default;" vertex="1" parent="WIyWlLk6GJQsqaUBKTNV-1">
          <mxGeometry x="2251" y="1190" width="120" height="80" as="geometry" />
        </mxCell>
        <mxCell id="Trn8S8U_fDd8YShinlyO-253" style="edgeStyle=orthogonalEdgeStyle;rounded=0;orthogonalLoop=1;jettySize=auto;html=1;exitX=0.5;exitY=1;exitDx=0;exitDy=0;entryX=0.5;entryY=0;entryDx=0;entryDy=0;fontFamily=Helvetica;fontSize=12;fontColor=default;labelBackgroundColor=default;" edge="1" parent="WIyWlLk6GJQsqaUBKTNV-1" source="Trn8S8U_fDd8YShinlyO-244" target="Trn8S8U_fDd8YShinlyO-252">
          <mxGeometry relative="1" as="geometry" />
        </mxCell>
        <mxCell id="Trn8S8U_fDd8YShinlyO-244" value="최근 본 상품 메뉴 출력" style="shape=parallelogram;perimeter=parallelogramPerimeter;whiteSpace=wrap;html=1;fixedSize=1;strokeColor=default;align=center;verticalAlign=middle;fontFamily=Helvetica;fontSize=12;fontColor=default;labelBackgroundColor=default;fillColor=default;" vertex="1" parent="WIyWlLk6GJQsqaUBKTNV-1">
          <mxGeometry x="845" y="460" width="150" height="60" as="geometry" />
        </mxCell>
        <mxCell id="Trn8S8U_fDd8YShinlyO-258" style="edgeStyle=orthogonalEdgeStyle;rounded=0;orthogonalLoop=1;jettySize=auto;html=1;exitX=0.5;exitY=0;exitDx=0;exitDy=0;entryX=0;entryY=0.5;entryDx=0;entryDy=0;fontFamily=Helvetica;fontSize=12;fontColor=default;labelBackgroundColor=default;fillColor=#d5e8d4;strokeColor=#82b366;" edge="1" parent="WIyWlLk6GJQsqaUBKTNV-1" source="Trn8S8U_fDd8YShinlyO-246" target="Trn8S8U_fDd8YShinlyO-255">
          <mxGeometry relative="1" as="geometry">
            <Array as="points">
              <mxPoint x="740" y="1130" />
              <mxPoint x="740" y="820" />
            </Array>
          </mxGeometry>
        </mxCell>
        <mxCell id="Trn8S8U_fDd8YShinlyO-246" value="최근 본 상품&lt;div&gt;해당 도서 추가&lt;/div&gt;" style="shape=parallelogram;perimeter=parallelogramPerimeter;whiteSpace=wrap;html=1;fixedSize=1;strokeColor=default;align=center;verticalAlign=middle;fontFamily=Helvetica;fontSize=12;fontColor=default;labelBackgroundColor=default;fillColor=default;" vertex="1" parent="WIyWlLk6GJQsqaUBKTNV-1">
          <mxGeometry x="664" y="1130" width="150" height="60" as="geometry" />
        </mxCell>
        <mxCell id="Trn8S8U_fDd8YShinlyO-254" value="Yes" style="edgeStyle=orthogonalEdgeStyle;rounded=0;orthogonalLoop=1;jettySize=auto;html=1;exitX=0.5;exitY=1;exitDx=0;exitDy=0;fontFamily=Helvetica;fontSize=12;fontColor=default;labelBackgroundColor=default;entryX=0.5;entryY=0;entryDx=0;entryDy=0;fillColor=#e1d5e7;strokeColor=#9673a6;" edge="1" parent="WIyWlLk6GJQsqaUBKTNV-1" source="Trn8S8U_fDd8YShinlyO-252" target="Trn8S8U_fDd8YShinlyO-255">
          <mxGeometry x="-0.76" relative="1" as="geometry">
            <mxPoint x="920" y="780" as="targetPoint" />
            <mxPoint as="offset" />
          </mxGeometry>
        </mxCell>
        <mxCell id="Trn8S8U_fDd8YShinlyO-259" value="No" style="edgeStyle=orthogonalEdgeStyle;rounded=0;orthogonalLoop=1;jettySize=auto;html=1;exitX=0;exitY=0.5;exitDx=0;exitDy=0;fontFamily=Helvetica;fontSize=12;fontColor=default;labelBackgroundColor=default;" edge="1" parent="WIyWlLk6GJQsqaUBKTNV-1" source="Trn8S8U_fDd8YShinlyO-252" target="Trn8S8U_fDd8YShinlyO-256">
          <mxGeometry x="-0.7297" relative="1" as="geometry">
            <mxPoint as="offset" />
          </mxGeometry>
        </mxCell>
        <mxCell id="Trn8S8U_fDd8YShinlyO-252" value="상품을 열람한&lt;div&gt;기록이 있는가&lt;/div&gt;" style="rhombus;whiteSpace=wrap;html=1;strokeColor=default;align=center;verticalAlign=middle;fontFamily=Helvetica;fontSize=12;fontColor=default;labelBackgroundColor=default;fillColor=default;" vertex="1" parent="WIyWlLk6GJQsqaUBKTNV-1">
          <mxGeometry x="855" y="585" width="130" height="80" as="geometry" />
        </mxCell>
        <mxCell id="Trn8S8U_fDd8YShinlyO-262" style="edgeStyle=orthogonalEdgeStyle;rounded=0;orthogonalLoop=1;jettySize=auto;html=1;exitX=0.5;exitY=1;exitDx=0;exitDy=0;entryX=0.5;entryY=0;entryDx=0;entryDy=0;fontFamily=Helvetica;fontSize=12;fontColor=default;labelBackgroundColor=default;" edge="1" parent="WIyWlLk6GJQsqaUBKTNV-1" source="Trn8S8U_fDd8YShinlyO-255" target="Trn8S8U_fDd8YShinlyO-261">
          <mxGeometry relative="1" as="geometry" />
        </mxCell>
        <mxCell id="Trn8S8U_fDd8YShinlyO-255" value="최근 본 상품&lt;br&gt;열람 리스트 출력" style="shape=parallelogram;perimeter=parallelogramPerimeter;whiteSpace=wrap;html=1;fixedSize=1;strokeColor=default;align=center;verticalAlign=middle;fontFamily=Helvetica;fontSize=12;fontColor=default;labelBackgroundColor=default;fillColor=default;" vertex="1" parent="WIyWlLk6GJQsqaUBKTNV-1">
          <mxGeometry x="845" y="790" width="150" height="60" as="geometry" />
        </mxCell>
        <mxCell id="Trn8S8U_fDd8YShinlyO-256" value="최근 본 상품&lt;br&gt;비어있는 리스트&lt;div&gt;출력&lt;/div&gt;" style="shape=parallelogram;perimeter=parallelogramPerimeter;whiteSpace=wrap;html=1;fixedSize=1;strokeColor=default;align=center;verticalAlign=middle;fontFamily=Helvetica;fontSize=12;fontColor=default;labelBackgroundColor=default;fillColor=default;" vertex="1" parent="WIyWlLk6GJQsqaUBKTNV-1">
          <mxGeometry x="530" y="595" width="150" height="60" as="geometry" />
        </mxCell>
        <mxCell id="Trn8S8U_fDd8YShinlyO-263" style="edgeStyle=orthogonalEdgeStyle;rounded=0;orthogonalLoop=1;jettySize=auto;html=1;exitX=0.5;exitY=1;exitDx=0;exitDy=0;entryX=0.5;entryY=0;entryDx=0;entryDy=0;fontFamily=Helvetica;fontSize=12;fontColor=default;labelBackgroundColor=default;fillColor=#dae8fc;strokeColor=#6c8ebf;" edge="1" parent="WIyWlLk6GJQsqaUBKTNV-1" source="Trn8S8U_fDd8YShinlyO-261" target="Trn8S8U_fDd8YShinlyO-50">
          <mxGeometry relative="1" as="geometry">
            <Array as="points">
              <mxPoint x="920" y="1260" />
              <mxPoint x="1191" y="1260" />
            </Array>
          </mxGeometry>
        </mxCell>
        <mxCell id="Trn8S8U_fDd8YShinlyO-261" value="최근 본 상품&lt;div&gt;도서 클릭&lt;/div&gt;" style="shape=parallelogram;perimeter=parallelogramPerimeter;whiteSpace=wrap;html=1;fixedSize=1;strokeColor=default;align=center;verticalAlign=middle;fontFamily=Helvetica;fontSize=12;fontColor=default;labelBackgroundColor=default;fillColor=default;" vertex="1" parent="WIyWlLk6GJQsqaUBKTNV-1">
          <mxGeometry x="845" y="945" width="150" height="60" as="geometry" />
        </mxCell>
        <mxCell id="Trn8S8U_fDd8YShinlyO-264" style="edgeStyle=orthogonalEdgeStyle;rounded=0;orthogonalLoop=1;jettySize=auto;html=1;entryX=0.567;entryY=0.083;entryDx=0;entryDy=0;entryPerimeter=0;fontFamily=Helvetica;fontSize=12;fontColor=default;labelBackgroundColor=default;exitX=0.429;exitY=1.033;exitDx=0;exitDy=0;exitPerimeter=0;" edge="1" parent="WIyWlLk6GJQsqaUBKTNV-1" source="Trn8S8U_fDd8YShinlyO-326" target="Trn8S8U_fDd8YShinlyO-12">
          <mxGeometry relative="1" as="geometry">
            <mxPoint x="830" y="-600" as="sourcePoint" />
            <Array as="points">
              <mxPoint x="820" y="-600" />
              <mxPoint x="1201" y="-600" />
              <mxPoint x="1201" y="80" />
              <mxPoint x="1664" y="80" />
            </Array>
          </mxGeometry>
        </mxCell>
        <mxCell id="Trn8S8U_fDd8YShinlyO-268" style="edgeStyle=orthogonalEdgeStyle;rounded=0;orthogonalLoop=1;jettySize=auto;html=1;exitX=0.5;exitY=1;exitDx=0;exitDy=0;entryX=1;entryY=0.5;entryDx=0;entryDy=0;fontFamily=Helvetica;fontSize=12;fontColor=default;labelBackgroundColor=default;fillColor=#dae8fc;strokeColor=#6c8ebf;" edge="1" parent="WIyWlLk6GJQsqaUBKTNV-1" source="Trn8S8U_fDd8YShinlyO-267" target="Trn8S8U_fDd8YShinlyO-50">
          <mxGeometry relative="1" as="geometry">
            <Array as="points">
              <mxPoint x="1656" y="1450" />
            </Array>
          </mxGeometry>
        </mxCell>
        <mxCell id="Trn8S8U_fDd8YShinlyO-269" style="edgeStyle=orthogonalEdgeStyle;rounded=0;orthogonalLoop=1;jettySize=auto;html=1;exitX=0.25;exitY=1;exitDx=0;exitDy=0;entryX=0.5;entryY=1;entryDx=0;entryDy=0;fontFamily=Helvetica;fontSize=12;fontColor=default;labelBackgroundColor=default;fillColor=#f8cecc;strokeColor=#b85450;" edge="1" parent="WIyWlLk6GJQsqaUBKTNV-1" source="Trn8S8U_fDd8YShinlyO-267" target="Trn8S8U_fDd8YShinlyO-246">
          <mxGeometry relative="1" as="geometry">
            <Array as="points">
              <mxPoint x="1626" y="1230" />
              <mxPoint x="739" y="1230" />
            </Array>
          </mxGeometry>
        </mxCell>
        <mxCell id="Trn8S8U_fDd8YShinlyO-267" value="메인 배너 클릭" style="rounded=0;whiteSpace=wrap;html=1;strokeColor=default;align=center;verticalAlign=middle;fontFamily=Helvetica;fontSize=12;fontColor=default;labelBackgroundColor=default;fillColor=default;" vertex="1" parent="WIyWlLk6GJQsqaUBKTNV-1">
          <mxGeometry x="1596" y="510" width="120" height="60" as="geometry" />
        </mxCell>
        <mxCell id="Trn8S8U_fDd8YShinlyO-282" style="edgeStyle=orthogonalEdgeStyle;rounded=0;orthogonalLoop=1;jettySize=auto;html=1;exitX=0.5;exitY=1;exitDx=0;exitDy=0;entryX=0.5;entryY=0;entryDx=0;entryDy=0;fontFamily=Helvetica;fontSize=12;fontColor=default;labelBackgroundColor=default;" edge="1" parent="WIyWlLk6GJQsqaUBKTNV-1" source="Trn8S8U_fDd8YShinlyO-271" target="Trn8S8U_fDd8YShinlyO-281">
          <mxGeometry relative="1" as="geometry" />
        </mxCell>
        <mxCell id="Trn8S8U_fDd8YShinlyO-271" value="회원가입 버튼 클릭" style="rounded=0;whiteSpace=wrap;html=1;strokeColor=default;align=center;verticalAlign=middle;fontFamily=Helvetica;fontSize=12;fontColor=default;labelBackgroundColor=default;fillColor=default;" vertex="1" parent="WIyWlLk6GJQsqaUBKTNV-1">
          <mxGeometry x="1956" y="-630" width="120" height="60" as="geometry" />
        </mxCell>
        <mxCell id="Trn8S8U_fDd8YShinlyO-279" style="edgeStyle=orthogonalEdgeStyle;rounded=0;orthogonalLoop=1;jettySize=auto;html=1;exitX=1;exitY=0.5;exitDx=0;exitDy=0;fontFamily=Helvetica;fontSize=12;fontColor=default;labelBackgroundColor=default;entryX=0;entryY=0.5;entryDx=0;entryDy=0;" edge="1" parent="WIyWlLk6GJQsqaUBKTNV-1" source="Trn8S8U_fDd8YShinlyO-274" target="Trn8S8U_fDd8YShinlyO-210">
          <mxGeometry relative="1" as="geometry">
            <mxPoint x="2880" y="2120" as="targetPoint" />
          </mxGeometry>
        </mxCell>
        <mxCell id="Trn8S8U_fDd8YShinlyO-274" value="쿠폰번호&lt;div&gt;입력&lt;/div&gt;" style="verticalLabelPosition=middle;verticalAlign=middle;html=1;shape=trapezoid;perimeter=trapezoidPerimeter;whiteSpace=wrap;size=0.23;arcSize=10;flipV=1;labelPosition=center;align=center;strokeColor=default;fontFamily=Helvetica;fontSize=12;fontColor=default;labelBackgroundColor=default;fillColor=default;" vertex="1" parent="WIyWlLk6GJQsqaUBKTNV-1">
          <mxGeometry x="2730" y="2090" width="100" height="60" as="geometry" />
        </mxCell>
        <mxCell id="Trn8S8U_fDd8YShinlyO-275" value="" style="endArrow=classic;html=1;rounded=0;fontFamily=Helvetica;fontSize=12;fontColor=default;labelBackgroundColor=default;exitX=0.119;exitY=1.033;exitDx=0;exitDy=0;exitPerimeter=0;fillColor=#e1d5e7;strokeColor=#9673a6;" edge="1" parent="WIyWlLk6GJQsqaUBKTNV-1" source="Trn8S8U_fDd8YShinlyO-166" target="Trn8S8U_fDd8YShinlyO-274">
          <mxGeometry width="50" height="50" relative="1" as="geometry">
            <mxPoint x="1830" y="2070" as="sourcePoint" />
            <mxPoint x="2320" y="2110" as="targetPoint" />
            <Array as="points">
              <mxPoint x="2226" y="2120" />
            </Array>
          </mxGeometry>
        </mxCell>
        <mxCell id="Trn8S8U_fDd8YShinlyO-278" value="" style="endArrow=classic;html=1;rounded=0;fontFamily=Helvetica;fontSize=12;fontColor=default;labelBackgroundColor=default;exitX=0.111;exitY=1.033;exitDx=0;exitDy=0;exitPerimeter=0;entryX=0;entryY=0.5;entryDx=0;entryDy=0;fillColor=#e1d5e7;strokeColor=#9673a6;" edge="1" parent="WIyWlLk6GJQsqaUBKTNV-1" source="Trn8S8U_fDd8YShinlyO-180" target="Trn8S8U_fDd8YShinlyO-274">
          <mxGeometry width="50" height="50" relative="1" as="geometry">
            <mxPoint x="1830" y="2070" as="sourcePoint" />
            <mxPoint x="1880" y="2020" as="targetPoint" />
            <Array as="points">
              <mxPoint x="2485" y="2120" />
            </Array>
          </mxGeometry>
        </mxCell>
        <mxCell id="Trn8S8U_fDd8YShinlyO-287" style="edgeStyle=orthogonalEdgeStyle;rounded=0;orthogonalLoop=1;jettySize=auto;html=1;exitX=0.5;exitY=1;exitDx=0;exitDy=0;entryX=0.5;entryY=0;entryDx=0;entryDy=0;fontFamily=Helvetica;fontSize=12;fontColor=default;labelBackgroundColor=default;" edge="1" parent="WIyWlLk6GJQsqaUBKTNV-1" source="Trn8S8U_fDd8YShinlyO-281" target="Trn8S8U_fDd8YShinlyO-286">
          <mxGeometry relative="1" as="geometry" />
        </mxCell>
        <mxCell id="Trn8S8U_fDd8YShinlyO-281" value="계정 생성 창 출력&lt;br&gt;(ID, PW, 이름 입력란, 계정생성 버튼)" style="shape=parallelogram;perimeter=parallelogramPerimeter;whiteSpace=wrap;html=1;fixedSize=1;strokeColor=default;align=center;verticalAlign=middle;fontFamily=Helvetica;fontSize=12;fontColor=default;labelBackgroundColor=default;fillColor=default;" vertex="1" parent="WIyWlLk6GJQsqaUBKTNV-1">
          <mxGeometry x="1893" y="-530" width="246" height="60" as="geometry" />
        </mxCell>
        <mxCell id="Trn8S8U_fDd8YShinlyO-292" value="No" style="edgeStyle=orthogonalEdgeStyle;rounded=0;orthogonalLoop=1;jettySize=auto;html=1;exitX=1;exitY=0.5;exitDx=0;exitDy=0;entryX=0;entryY=0.5;entryDx=0;entryDy=0;fontFamily=Helvetica;fontSize=12;fontColor=default;labelBackgroundColor=default;" edge="1" parent="WIyWlLk6GJQsqaUBKTNV-1" source="Trn8S8U_fDd8YShinlyO-283" target="Trn8S8U_fDd8YShinlyO-291">
          <mxGeometry relative="1" as="geometry" />
        </mxCell>
        <mxCell id="Trn8S8U_fDd8YShinlyO-299" value="Yes" style="edgeStyle=orthogonalEdgeStyle;rounded=0;orthogonalLoop=1;jettySize=auto;html=1;exitX=0.5;exitY=1;exitDx=0;exitDy=0;entryX=0.5;entryY=0;entryDx=0;entryDy=0;fontFamily=Helvetica;fontSize=12;fontColor=default;labelBackgroundColor=default;" edge="1" parent="WIyWlLk6GJQsqaUBKTNV-1" source="Trn8S8U_fDd8YShinlyO-283" target="Trn8S8U_fDd8YShinlyO-298">
          <mxGeometry relative="1" as="geometry" />
        </mxCell>
        <mxCell id="Trn8S8U_fDd8YShinlyO-283" value="ID, PW, 이름 칸에&lt;div&gt;내용이 입력되어 있는가&lt;/div&gt;" style="rhombus;whiteSpace=wrap;html=1;strokeColor=default;align=center;verticalAlign=middle;fontFamily=Helvetica;fontSize=12;fontColor=default;labelBackgroundColor=default;fillColor=default;" vertex="1" parent="WIyWlLk6GJQsqaUBKTNV-1">
          <mxGeometry x="1911" y="-330" width="210" height="80" as="geometry" />
        </mxCell>
        <mxCell id="Trn8S8U_fDd8YShinlyO-288" style="edgeStyle=orthogonalEdgeStyle;rounded=0;orthogonalLoop=1;jettySize=auto;html=1;exitX=0.5;exitY=1;exitDx=0;exitDy=0;entryX=0.5;entryY=0;entryDx=0;entryDy=0;fontFamily=Helvetica;fontSize=12;fontColor=default;labelBackgroundColor=default;" edge="1" parent="WIyWlLk6GJQsqaUBKTNV-1" source="Trn8S8U_fDd8YShinlyO-286" target="Trn8S8U_fDd8YShinlyO-283">
          <mxGeometry relative="1" as="geometry" />
        </mxCell>
        <mxCell id="Trn8S8U_fDd8YShinlyO-286" value="계정 생성 버튼 클릭" style="rounded=0;whiteSpace=wrap;html=1;strokeColor=default;align=center;verticalAlign=middle;fontFamily=Helvetica;fontSize=12;fontColor=default;labelBackgroundColor=default;fillColor=default;" vertex="1" parent="WIyWlLk6GJQsqaUBKTNV-1">
          <mxGeometry x="1956" y="-430" width="120" height="60" as="geometry" />
        </mxCell>
        <mxCell id="Trn8S8U_fDd8YShinlyO-295" style="edgeStyle=orthogonalEdgeStyle;rounded=0;orthogonalLoop=1;jettySize=auto;html=1;exitX=0.5;exitY=0;exitDx=0;exitDy=0;entryX=1;entryY=0.5;entryDx=0;entryDy=0;fontFamily=Helvetica;fontSize=12;fontColor=default;labelBackgroundColor=default;" edge="1" parent="WIyWlLk6GJQsqaUBKTNV-1" source="Trn8S8U_fDd8YShinlyO-291" target="Trn8S8U_fDd8YShinlyO-281">
          <mxGeometry relative="1" as="geometry">
            <Array as="points">
              <mxPoint x="2291" y="-500" />
            </Array>
          </mxGeometry>
        </mxCell>
        <mxCell id="Trn8S8U_fDd8YShinlyO-291" value="&quot;이 입력란을 작성하세요.&quot;&lt;div&gt;팝업 출력&lt;/div&gt;" style="shape=document;whiteSpace=wrap;html=1;boundedLbl=1;strokeColor=default;align=center;verticalAlign=middle;fontFamily=Helvetica;fontSize=12;fontColor=default;labelBackgroundColor=default;fillColor=default;" vertex="1" parent="WIyWlLk6GJQsqaUBKTNV-1">
          <mxGeometry x="2211" y="-330" width="160" height="80" as="geometry" />
        </mxCell>
        <mxCell id="Trn8S8U_fDd8YShinlyO-304" style="edgeStyle=orthogonalEdgeStyle;rounded=0;orthogonalLoop=1;jettySize=auto;html=1;exitX=1;exitY=0.5;exitDx=0;exitDy=0;entryX=1;entryY=0.5;entryDx=0;entryDy=0;fontFamily=Helvetica;fontSize=12;fontColor=default;labelBackgroundColor=default;" edge="1" parent="WIyWlLk6GJQsqaUBKTNV-1" source="Trn8S8U_fDd8YShinlyO-296" target="Trn8S8U_fDd8YShinlyO-281">
          <mxGeometry relative="1" as="geometry">
            <Array as="points">
              <mxPoint x="2391" y="-45" />
              <mxPoint x="2391" y="-500" />
            </Array>
          </mxGeometry>
        </mxCell>
        <mxCell id="Trn8S8U_fDd8YShinlyO-296" value="&quot;이미 존재하는 ID입니다.&quot;&lt;div&gt;출력&lt;/div&gt;" style="shape=document;whiteSpace=wrap;html=1;boundedLbl=1;strokeColor=default;align=center;verticalAlign=middle;fontFamily=Helvetica;fontSize=12;fontColor=default;labelBackgroundColor=default;fillColor=default;" vertex="1" parent="WIyWlLk6GJQsqaUBKTNV-1">
          <mxGeometry x="2211" y="-85" width="160" height="80" as="geometry" />
        </mxCell>
        <mxCell id="Trn8S8U_fDd8YShinlyO-301" value="Yes" style="edgeStyle=orthogonalEdgeStyle;rounded=0;orthogonalLoop=1;jettySize=auto;html=1;exitX=1;exitY=0.5;exitDx=0;exitDy=0;exitPerimeter=0;entryX=0;entryY=0.5;entryDx=0;entryDy=0;fontFamily=Helvetica;fontSize=12;fontColor=default;labelBackgroundColor=default;" edge="1" parent="WIyWlLk6GJQsqaUBKTNV-1" source="Trn8S8U_fDd8YShinlyO-297" target="Trn8S8U_fDd8YShinlyO-296">
          <mxGeometry relative="1" as="geometry" />
        </mxCell>
        <mxCell id="Trn8S8U_fDd8YShinlyO-297" value="계정 저장 정보 확인" style="shape=cylinder3;whiteSpace=wrap;html=1;boundedLbl=1;backgroundOutline=1;size=15;strokeColor=default;align=center;verticalAlign=middle;fontFamily=Helvetica;fontSize=12;fontColor=default;labelBackgroundColor=default;fillColor=default;" vertex="1" parent="WIyWlLk6GJQsqaUBKTNV-1">
          <mxGeometry x="1941" y="-80" width="150" height="70" as="geometry" />
        </mxCell>
        <mxCell id="Trn8S8U_fDd8YShinlyO-298" value="계정 저장소에&lt;div&gt;해당 ID와 일치하는 계정이&lt;/div&gt;&lt;div&gt;이미 존재하는가&lt;/div&gt;" style="rhombus;whiteSpace=wrap;html=1;strokeColor=default;align=center;verticalAlign=middle;fontFamily=Helvetica;fontSize=12;fontColor=default;labelBackgroundColor=default;fillColor=default;" vertex="1" parent="WIyWlLk6GJQsqaUBKTNV-1">
          <mxGeometry x="1911" y="-200" width="210" height="80" as="geometry" />
        </mxCell>
        <mxCell id="Trn8S8U_fDd8YShinlyO-300" style="edgeStyle=orthogonalEdgeStyle;rounded=0;orthogonalLoop=1;jettySize=auto;html=1;exitX=0.5;exitY=1;exitDx=0;exitDy=0;entryX=0.5;entryY=0;entryDx=0;entryDy=0;entryPerimeter=0;fontFamily=Helvetica;fontSize=12;fontColor=default;labelBackgroundColor=default;" edge="1" parent="WIyWlLk6GJQsqaUBKTNV-1" source="Trn8S8U_fDd8YShinlyO-298" target="Trn8S8U_fDd8YShinlyO-297">
          <mxGeometry relative="1" as="geometry" />
        </mxCell>
        <mxCell id="Trn8S8U_fDd8YShinlyO-305" value="계정 저장소에 저장" style="shape=cylinder3;whiteSpace=wrap;html=1;boundedLbl=1;backgroundOutline=1;size=15;strokeColor=default;align=center;verticalAlign=middle;fontFamily=Helvetica;fontSize=12;fontColor=default;labelBackgroundColor=default;fillColor=default;" vertex="1" parent="WIyWlLk6GJQsqaUBKTNV-1">
          <mxGeometry x="1761" y="-200" width="150" height="70" as="geometry" />
        </mxCell>
        <mxCell id="Trn8S8U_fDd8YShinlyO-307" value="&quot;계정이 성공적으로 생성되었습니다.&quot;&lt;div&gt;출력&lt;/div&gt;" style="shape=document;whiteSpace=wrap;html=1;boundedLbl=1;strokeColor=default;align=center;verticalAlign=middle;fontFamily=Helvetica;fontSize=12;fontColor=default;labelBackgroundColor=default;fillColor=default;" vertex="1" parent="WIyWlLk6GJQsqaUBKTNV-1">
          <mxGeometry x="1580" y="-73" width="210" height="80" as="geometry" />
        </mxCell>
        <mxCell id="Trn8S8U_fDd8YShinlyO-308" value="No" style="edgeStyle=orthogonalEdgeStyle;rounded=0;orthogonalLoop=1;jettySize=auto;html=1;exitX=0;exitY=0.5;exitDx=0;exitDy=0;exitPerimeter=0;entryX=1;entryY=0.35;entryDx=0;entryDy=0;entryPerimeter=0;fontFamily=Helvetica;fontSize=12;fontColor=default;labelBackgroundColor=default;" edge="1" parent="WIyWlLk6GJQsqaUBKTNV-1" source="Trn8S8U_fDd8YShinlyO-297" target="Trn8S8U_fDd8YShinlyO-307">
          <mxGeometry relative="1" as="geometry" />
        </mxCell>
        <mxCell id="Trn8S8U_fDd8YShinlyO-309" style="edgeStyle=orthogonalEdgeStyle;rounded=0;orthogonalLoop=1;jettySize=auto;html=1;exitX=0.5;exitY=0;exitDx=0;exitDy=0;entryX=0.5;entryY=1;entryDx=0;entryDy=0;entryPerimeter=0;fontFamily=Helvetica;fontSize=12;fontColor=default;labelBackgroundColor=default;" edge="1" parent="WIyWlLk6GJQsqaUBKTNV-1" source="Trn8S8U_fDd8YShinlyO-307" target="Trn8S8U_fDd8YShinlyO-305">
          <mxGeometry relative="1" as="geometry" />
        </mxCell>
        <mxCell id="Trn8S8U_fDd8YShinlyO-313" style="edgeStyle=orthogonalEdgeStyle;rounded=0;orthogonalLoop=1;jettySize=auto;html=1;exitX=0.5;exitY=0;exitDx=0;exitDy=0;exitPerimeter=0;entryX=0.5;entryY=1;entryDx=0;entryDy=0;fontFamily=Helvetica;fontSize=12;fontColor=default;labelBackgroundColor=default;" edge="1" parent="WIyWlLk6GJQsqaUBKTNV-1" source="Trn8S8U_fDd8YShinlyO-310" target="Trn8S8U_fDd8YShinlyO-312">
          <mxGeometry relative="1" as="geometry" />
        </mxCell>
        <mxCell id="Trn8S8U_fDd8YShinlyO-310" value="2초 지연" style="strokeWidth=2;html=1;shape=mxgraph.flowchart.delay;whiteSpace=wrap;strokeColor=default;align=center;verticalAlign=middle;fontFamily=Helvetica;fontSize=12;fontColor=default;labelBackgroundColor=default;fillColor=default;" vertex="1" parent="WIyWlLk6GJQsqaUBKTNV-1">
          <mxGeometry x="1643" y="-190" width="100" height="60" as="geometry" />
        </mxCell>
        <mxCell id="Trn8S8U_fDd8YShinlyO-311" style="edgeStyle=orthogonalEdgeStyle;rounded=0;orthogonalLoop=1;jettySize=auto;html=1;exitX=0.5;exitY=0;exitDx=0;exitDy=0;entryX=0.42;entryY=1.083;entryDx=0;entryDy=0;entryPerimeter=0;fontFamily=Helvetica;fontSize=12;fontColor=default;labelBackgroundColor=default;" edge="1" parent="WIyWlLk6GJQsqaUBKTNV-1" source="Trn8S8U_fDd8YShinlyO-307" target="Trn8S8U_fDd8YShinlyO-310">
          <mxGeometry relative="1" as="geometry" />
        </mxCell>
        <mxCell id="Trn8S8U_fDd8YShinlyO-314" style="edgeStyle=orthogonalEdgeStyle;rounded=0;orthogonalLoop=1;jettySize=auto;html=1;exitX=0;exitY=0.5;exitDx=0;exitDy=0;fontFamily=Helvetica;fontSize=12;fontColor=default;labelBackgroundColor=default;entryX=0.5;entryY=0;entryDx=0;entryDy=0;" edge="1" parent="WIyWlLk6GJQsqaUBKTNV-1" source="Trn8S8U_fDd8YShinlyO-312" target="Trn8S8U_fDd8YShinlyO-4">
          <mxGeometry relative="1" as="geometry">
            <mxPoint x="1560" y="-260" as="targetPoint" />
          </mxGeometry>
        </mxCell>
        <mxCell id="Trn8S8U_fDd8YShinlyO-312" value="계정 생성 창 꺼짐" style="shape=parallelogram;perimeter=parallelogramPerimeter;whiteSpace=wrap;html=1;fixedSize=1;strokeColor=default;align=center;verticalAlign=middle;fontFamily=Helvetica;fontSize=12;fontColor=default;labelBackgroundColor=default;fillColor=default;" vertex="1" parent="WIyWlLk6GJQsqaUBKTNV-1">
          <mxGeometry x="1623" y="-290" width="140" height="60" as="geometry" />
        </mxCell>
        <mxCell id="Trn8S8U_fDd8YShinlyO-332" style="edgeStyle=orthogonalEdgeStyle;rounded=0;orthogonalLoop=1;jettySize=auto;html=1;exitX=0;exitY=0.5;exitDx=0;exitDy=0;entryX=0.5;entryY=0;entryDx=0;entryDy=0;fontFamily=Helvetica;fontSize=12;fontColor=default;labelBackgroundColor=default;" edge="1" parent="WIyWlLk6GJQsqaUBKTNV-1" source="Trn8S8U_fDd8YShinlyO-317" target="Trn8S8U_fDd8YShinlyO-4">
          <mxGeometry relative="1" as="geometry">
            <Array as="points">
              <mxPoint x="1201" y="-810" />
            </Array>
          </mxGeometry>
        </mxCell>
        <mxCell id="Trn8S8U_fDd8YShinlyO-339" style="edgeStyle=orthogonalEdgeStyle;rounded=0;orthogonalLoop=1;jettySize=auto;html=1;exitX=0.5;exitY=1;exitDx=0;exitDy=0;entryX=0.5;entryY=0;entryDx=0;entryDy=0;fontFamily=Helvetica;fontSize=12;fontColor=default;labelBackgroundColor=default;" edge="1" parent="WIyWlLk6GJQsqaUBKTNV-1" source="Trn8S8U_fDd8YShinlyO-317" target="Trn8S8U_fDd8YShinlyO-338">
          <mxGeometry relative="1" as="geometry" />
        </mxCell>
        <mxCell id="Trn8S8U_fDd8YShinlyO-317" value="로그인 메뉴&lt;div&gt;아이콘 활성화&lt;/div&gt;" style="shape=parallelogram;perimeter=parallelogramPerimeter;whiteSpace=wrap;html=1;fixedSize=1;strokeColor=default;align=center;verticalAlign=middle;fontFamily=Helvetica;fontSize=12;fontColor=default;labelBackgroundColor=default;fillColor=default;" vertex="1" parent="WIyWlLk6GJQsqaUBKTNV-1">
          <mxGeometry x="2830.04" y="-840" width="140" height="60" as="geometry" />
        </mxCell>
        <mxCell id="Trn8S8U_fDd8YShinlyO-319" style="edgeStyle=orthogonalEdgeStyle;rounded=0;orthogonalLoop=1;jettySize=auto;html=1;exitX=0.5;exitY=1;exitDx=0;exitDy=0;entryX=0.5;entryY=0;entryDx=0;entryDy=0;fontFamily=Helvetica;fontSize=12;fontColor=default;labelBackgroundColor=default;" edge="1" parent="WIyWlLk6GJQsqaUBKTNV-1" source="Trn8S8U_fDd8YShinlyO-318" target="Trn8S8U_fDd8YShinlyO-271">
          <mxGeometry relative="1" as="geometry" />
        </mxCell>
        <mxCell id="Trn8S8U_fDd8YShinlyO-336" style="edgeStyle=orthogonalEdgeStyle;rounded=0;orthogonalLoop=1;jettySize=auto;html=1;exitX=0;exitY=0.5;exitDx=0;exitDy=0;entryX=0.5;entryY=0;entryDx=0;entryDy=0;fontFamily=Helvetica;fontSize=12;fontColor=default;labelBackgroundColor=default;" edge="1" parent="WIyWlLk6GJQsqaUBKTNV-1" source="Trn8S8U_fDd8YShinlyO-318" target="Trn8S8U_fDd8YShinlyO-4">
          <mxGeometry relative="1" as="geometry">
            <Array as="points">
              <mxPoint x="1201" y="-730" />
            </Array>
          </mxGeometry>
        </mxCell>
        <mxCell id="Trn8S8U_fDd8YShinlyO-318" value="회원가입 버튼 활성화" style="shape=parallelogram;perimeter=parallelogramPerimeter;whiteSpace=wrap;html=1;fixedSize=1;strokeColor=default;align=center;verticalAlign=middle;fontFamily=Helvetica;fontSize=12;fontColor=default;labelBackgroundColor=default;fillColor=default;" vertex="1" parent="WIyWlLk6GJQsqaUBKTNV-1">
          <mxGeometry x="1946" y="-760" width="140" height="60" as="geometry" />
        </mxCell>
        <mxCell id="Trn8S8U_fDd8YShinlyO-325" value="" style="edgeStyle=orthogonalEdgeStyle;rounded=0;orthogonalLoop=1;jettySize=auto;html=1;exitX=0.5;exitY=1;exitDx=0;exitDy=0;entryX=0.5;entryY=0;entryDx=0;entryDy=0;fontFamily=Helvetica;fontSize=12;fontColor=default;labelBackgroundColor=default;fillColor=#f8cecc;strokeColor=#b85450;" edge="1" parent="WIyWlLk6GJQsqaUBKTNV-1" source="Trn8S8U_fDd8YShinlyO-2" target="Trn8S8U_fDd8YShinlyO-315">
          <mxGeometry relative="1" as="geometry">
            <mxPoint x="1201" y="-1040" as="sourcePoint" />
            <mxPoint x="2312" y="1408" as="targetPoint" />
            <Array as="points" />
          </mxGeometry>
        </mxCell>
        <mxCell id="Trn8S8U_fDd8YShinlyO-334" style="edgeStyle=orthogonalEdgeStyle;rounded=0;orthogonalLoop=1;jettySize=auto;html=1;exitX=1;exitY=0.5;exitDx=0;exitDy=0;entryX=0.5;entryY=0;entryDx=0;entryDy=0;fontFamily=Helvetica;fontSize=12;fontColor=default;labelBackgroundColor=default;" edge="1" parent="WIyWlLk6GJQsqaUBKTNV-1" source="Trn8S8U_fDd8YShinlyO-315" target="Trn8S8U_fDd8YShinlyO-317">
          <mxGeometry relative="1" as="geometry" />
        </mxCell>
        <mxCell id="Trn8S8U_fDd8YShinlyO-335" value="No" style="edgeStyle=orthogonalEdgeStyle;rounded=0;orthogonalLoop=1;jettySize=auto;html=1;exitX=1;exitY=0.5;exitDx=0;exitDy=0;entryX=0.5;entryY=0;entryDx=0;entryDy=0;fontFamily=Helvetica;fontSize=12;fontColor=default;labelBackgroundColor=default;" edge="1" parent="WIyWlLk6GJQsqaUBKTNV-1" source="Trn8S8U_fDd8YShinlyO-315" target="Trn8S8U_fDd8YShinlyO-318">
          <mxGeometry x="-0.9012" relative="1" as="geometry">
            <mxPoint as="offset" />
          </mxGeometry>
        </mxCell>
        <mxCell id="Trn8S8U_fDd8YShinlyO-371" style="edgeStyle=orthogonalEdgeStyle;rounded=0;orthogonalLoop=1;jettySize=auto;html=1;exitX=0;exitY=0.5;exitDx=0;exitDy=0;entryX=0.5;entryY=0;entryDx=0;entryDy=0;fontFamily=Helvetica;fontSize=12;fontColor=default;labelBackgroundColor=default;" edge="1" parent="WIyWlLk6GJQsqaUBKTNV-1" source="Trn8S8U_fDd8YShinlyO-315" target="Trn8S8U_fDd8YShinlyO-370">
          <mxGeometry relative="1" as="geometry" />
        </mxCell>
        <mxCell id="Trn8S8U_fDd8YShinlyO-372" style="edgeStyle=orthogonalEdgeStyle;rounded=0;orthogonalLoop=1;jettySize=auto;html=1;exitX=0;exitY=0.5;exitDx=0;exitDy=0;fontFamily=Helvetica;fontSize=12;fontColor=default;labelBackgroundColor=default;" edge="1" parent="WIyWlLk6GJQsqaUBKTNV-1" source="Trn8S8U_fDd8YShinlyO-315" target="Trn8S8U_fDd8YShinlyO-369">
          <mxGeometry relative="1" as="geometry" />
        </mxCell>
        <mxCell id="Trn8S8U_fDd8YShinlyO-373" style="edgeStyle=orthogonalEdgeStyle;rounded=0;orthogonalLoop=1;jettySize=auto;html=1;exitX=0;exitY=0.5;exitDx=0;exitDy=0;fontFamily=Helvetica;fontSize=12;fontColor=default;labelBackgroundColor=default;" edge="1" parent="WIyWlLk6GJQsqaUBKTNV-1" source="Trn8S8U_fDd8YShinlyO-315" target="Trn8S8U_fDd8YShinlyO-368">
          <mxGeometry relative="1" as="geometry" />
        </mxCell>
        <mxCell id="Trn8S8U_fDd8YShinlyO-315" value="로그인 상태인가" style="rhombus;whiteSpace=wrap;html=1;strokeColor=default;align=center;verticalAlign=middle;fontFamily=Helvetica;fontSize=12;fontColor=default;labelBackgroundColor=default;fillColor=default;" vertex="1" parent="WIyWlLk6GJQsqaUBKTNV-1">
          <mxGeometry x="1137.5" y="-970" width="127" height="80" as="geometry" />
        </mxCell>
        <mxCell id="Trn8S8U_fDd8YShinlyO-326" value="로그인 버튼,&lt;div&gt;회원가입 버튼&lt;/div&gt;&lt;div&gt;비활성화&lt;/div&gt;" style="shape=parallelogram;perimeter=parallelogramPerimeter;whiteSpace=wrap;html=1;fixedSize=1;strokeColor=default;align=center;verticalAlign=middle;fontFamily=Helvetica;fontSize=12;fontColor=default;labelBackgroundColor=default;fillColor=default;" vertex="1" parent="WIyWlLk6GJQsqaUBKTNV-1">
          <mxGeometry x="760" y="-730" width="140" height="60" as="geometry" />
        </mxCell>
        <mxCell id="Trn8S8U_fDd8YShinlyO-329" value="Yes" style="edgeStyle=orthogonalEdgeStyle;rounded=0;orthogonalLoop=1;jettySize=auto;html=1;exitX=0;exitY=0.5;exitDx=0;exitDy=0;entryX=0.557;entryY=-0.017;entryDx=0;entryDy=0;entryPerimeter=0;fontFamily=Helvetica;fontSize=12;fontColor=default;labelBackgroundColor=default;" edge="1" parent="WIyWlLk6GJQsqaUBKTNV-1" source="Trn8S8U_fDd8YShinlyO-315" target="Trn8S8U_fDd8YShinlyO-326">
          <mxGeometry x="-0.8495" relative="1" as="geometry">
            <mxPoint x="1" as="offset" />
          </mxGeometry>
        </mxCell>
        <mxCell id="Trn8S8U_fDd8YShinlyO-348" style="edgeStyle=orthogonalEdgeStyle;rounded=0;orthogonalLoop=1;jettySize=auto;html=1;exitX=0.5;exitY=1;exitDx=0;exitDy=0;fontFamily=Helvetica;fontSize=12;fontColor=default;labelBackgroundColor=default;" edge="1" parent="WIyWlLk6GJQsqaUBKTNV-1" source="Trn8S8U_fDd8YShinlyO-338" target="Trn8S8U_fDd8YShinlyO-347">
          <mxGeometry relative="1" as="geometry" />
        </mxCell>
        <mxCell id="Trn8S8U_fDd8YShinlyO-338" value="로그인 메뉴&lt;div&gt;아이콘 클릭&lt;/div&gt;" style="rounded=0;whiteSpace=wrap;html=1;strokeColor=default;align=center;verticalAlign=middle;fontFamily=Helvetica;fontSize=12;fontColor=default;labelBackgroundColor=default;fillColor=default;" vertex="1" parent="WIyWlLk6GJQsqaUBKTNV-1">
          <mxGeometry x="2840.04" y="-740" width="120" height="60" as="geometry" />
        </mxCell>
        <mxCell id="Trn8S8U_fDd8YShinlyO-350" style="edgeStyle=orthogonalEdgeStyle;rounded=0;orthogonalLoop=1;jettySize=auto;html=1;exitX=1;exitY=0.5;exitDx=0;exitDy=0;entryX=0;entryY=0.5;entryDx=0;entryDy=0;fontFamily=Helvetica;fontSize=12;fontColor=default;labelBackgroundColor=default;" edge="1" parent="WIyWlLk6GJQsqaUBKTNV-1" source="Trn8S8U_fDd8YShinlyO-341" target="Trn8S8U_fDd8YShinlyO-346">
          <mxGeometry relative="1" as="geometry" />
        </mxCell>
        <mxCell id="Trn8S8U_fDd8YShinlyO-357" style="edgeStyle=orthogonalEdgeStyle;rounded=0;orthogonalLoop=1;jettySize=auto;html=1;exitX=0.5;exitY=1;exitDx=0;exitDy=0;entryX=0.5;entryY=0;entryDx=0;entryDy=0;fontFamily=Helvetica;fontSize=12;fontColor=default;labelBackgroundColor=default;" edge="1" parent="WIyWlLk6GJQsqaUBKTNV-1" source="Trn8S8U_fDd8YShinlyO-341" target="Trn8S8U_fDd8YShinlyO-356">
          <mxGeometry relative="1" as="geometry" />
        </mxCell>
        <mxCell id="Trn8S8U_fDd8YShinlyO-341" value="ID, PW 입력" style="verticalLabelPosition=middle;verticalAlign=middle;html=1;shape=trapezoid;perimeter=trapezoidPerimeter;whiteSpace=wrap;size=0.23;arcSize=10;flipV=1;labelPosition=center;align=center;strokeColor=default;fontFamily=Helvetica;fontSize=12;fontColor=default;labelBackgroundColor=default;fillColor=default;" vertex="1" parent="WIyWlLk6GJQsqaUBKTNV-1">
          <mxGeometry x="2850.04" y="-540" width="100" height="60" as="geometry" />
        </mxCell>
        <mxCell id="Trn8S8U_fDd8YShinlyO-343" value="입력한 ID, PW가&lt;div&gt;저장소에 있는 값과&lt;div&gt;일치하는가&lt;/div&gt;&lt;/div&gt;" style="rhombus;whiteSpace=wrap;html=1;strokeColor=default;align=center;verticalAlign=middle;fontFamily=Helvetica;fontSize=12;fontColor=default;labelBackgroundColor=default;fillColor=default;" vertex="1" parent="WIyWlLk6GJQsqaUBKTNV-1">
          <mxGeometry x="2795.04" y="-340" width="210" height="80" as="geometry" />
        </mxCell>
        <mxCell id="Trn8S8U_fDd8YShinlyO-352" style="edgeStyle=orthogonalEdgeStyle;rounded=0;orthogonalLoop=1;jettySize=auto;html=1;exitX=0.5;exitY=0;exitDx=0;exitDy=0;entryX=0.5;entryY=1;entryDx=0;entryDy=0;fontFamily=Helvetica;fontSize=12;fontColor=default;labelBackgroundColor=default;" edge="1" parent="WIyWlLk6GJQsqaUBKTNV-1" source="Trn8S8U_fDd8YShinlyO-346" target="Trn8S8U_fDd8YShinlyO-351">
          <mxGeometry relative="1" as="geometry" />
        </mxCell>
        <mxCell id="Trn8S8U_fDd8YShinlyO-346" value="취소 버튼 클릭" style="rounded=0;whiteSpace=wrap;html=1;strokeColor=default;align=center;verticalAlign=middle;fontFamily=Helvetica;fontSize=12;fontColor=default;labelBackgroundColor=default;fillColor=default;" vertex="1" parent="WIyWlLk6GJQsqaUBKTNV-1">
          <mxGeometry x="3040.04" y="-540" width="120" height="60" as="geometry" />
        </mxCell>
        <mxCell id="Trn8S8U_fDd8YShinlyO-349" style="edgeStyle=orthogonalEdgeStyle;rounded=0;orthogonalLoop=1;jettySize=auto;html=1;exitX=0.5;exitY=1;exitDx=0;exitDy=0;entryX=0.5;entryY=0;entryDx=0;entryDy=0;fontFamily=Helvetica;fontSize=12;fontColor=default;labelBackgroundColor=default;" edge="1" parent="WIyWlLk6GJQsqaUBKTNV-1" source="Trn8S8U_fDd8YShinlyO-347" target="Trn8S8U_fDd8YShinlyO-341">
          <mxGeometry relative="1" as="geometry" />
        </mxCell>
        <mxCell id="Trn8S8U_fDd8YShinlyO-347" value="로그인 드롭박스 출력" style="shape=parallelogram;perimeter=parallelogramPerimeter;whiteSpace=wrap;html=1;fixedSize=1;strokeColor=default;align=center;verticalAlign=middle;fontFamily=Helvetica;fontSize=12;fontColor=default;labelBackgroundColor=default;fillColor=default;" vertex="1" parent="WIyWlLk6GJQsqaUBKTNV-1">
          <mxGeometry x="2830.04" y="-640" width="140" height="60" as="geometry" />
        </mxCell>
        <mxCell id="Trn8S8U_fDd8YShinlyO-353" style="edgeStyle=orthogonalEdgeStyle;rounded=0;orthogonalLoop=1;jettySize=auto;html=1;exitX=0;exitY=0.5;exitDx=0;exitDy=0;entryX=1;entryY=0.5;entryDx=0;entryDy=0;fontFamily=Helvetica;fontSize=12;fontColor=default;labelBackgroundColor=default;" edge="1" parent="WIyWlLk6GJQsqaUBKTNV-1" source="Trn8S8U_fDd8YShinlyO-351" target="Trn8S8U_fDd8YShinlyO-347">
          <mxGeometry relative="1" as="geometry" />
        </mxCell>
        <mxCell id="Trn8S8U_fDd8YShinlyO-351" value="ID, PW 입력값 지움" style="shape=parallelogram;perimeter=parallelogramPerimeter;whiteSpace=wrap;html=1;fixedSize=1;strokeColor=default;align=center;verticalAlign=middle;fontFamily=Helvetica;fontSize=12;fontColor=default;labelBackgroundColor=default;fillColor=default;" vertex="1" parent="WIyWlLk6GJQsqaUBKTNV-1">
          <mxGeometry x="3030.04" y="-640" width="140" height="60" as="geometry" />
        </mxCell>
        <mxCell id="Trn8S8U_fDd8YShinlyO-358" style="edgeStyle=orthogonalEdgeStyle;rounded=0;orthogonalLoop=1;jettySize=auto;html=1;exitX=0.5;exitY=1;exitDx=0;exitDy=0;entryX=0.5;entryY=0;entryDx=0;entryDy=0;fontFamily=Helvetica;fontSize=12;fontColor=default;labelBackgroundColor=default;" edge="1" parent="WIyWlLk6GJQsqaUBKTNV-1" source="Trn8S8U_fDd8YShinlyO-356" target="Trn8S8U_fDd8YShinlyO-343">
          <mxGeometry relative="1" as="geometry" />
        </mxCell>
        <mxCell id="Trn8S8U_fDd8YShinlyO-356" value="로그인 버튼 클릭" style="rounded=0;whiteSpace=wrap;html=1;strokeColor=default;align=center;verticalAlign=middle;fontFamily=Helvetica;fontSize=12;fontColor=default;labelBackgroundColor=default;fillColor=default;" vertex="1" parent="WIyWlLk6GJQsqaUBKTNV-1">
          <mxGeometry x="2840.04" y="-450" width="120" height="60" as="geometry" />
        </mxCell>
        <mxCell id="Trn8S8U_fDd8YShinlyO-384" value="Yes" style="edgeStyle=orthogonalEdgeStyle;rounded=0;orthogonalLoop=1;jettySize=auto;html=1;exitX=0.5;exitY=1;exitDx=0;exitDy=0;exitPerimeter=0;entryX=0.5;entryY=0;entryDx=0;entryDy=0;fontFamily=Helvetica;fontSize=12;fontColor=default;labelBackgroundColor=default;" edge="1" parent="WIyWlLk6GJQsqaUBKTNV-1" source="Trn8S8U_fDd8YShinlyO-359" target="Trn8S8U_fDd8YShinlyO-383">
          <mxGeometry relative="1" as="geometry" />
        </mxCell>
        <mxCell id="Trn8S8U_fDd8YShinlyO-359" value="계정 저장소 확인" style="shape=cylinder3;whiteSpace=wrap;html=1;boundedLbl=1;backgroundOutline=1;size=15;strokeColor=default;align=center;verticalAlign=middle;fontFamily=Helvetica;fontSize=12;fontColor=default;labelBackgroundColor=default;fillColor=default;" vertex="1" parent="WIyWlLk6GJQsqaUBKTNV-1">
          <mxGeometry x="2825.04" y="-230" width="150" height="70" as="geometry" />
        </mxCell>
        <mxCell id="Trn8S8U_fDd8YShinlyO-360" style="edgeStyle=orthogonalEdgeStyle;rounded=0;orthogonalLoop=1;jettySize=auto;html=1;exitX=0.5;exitY=1;exitDx=0;exitDy=0;entryX=0.5;entryY=0;entryDx=0;entryDy=0;entryPerimeter=0;fontFamily=Helvetica;fontSize=12;fontColor=default;labelBackgroundColor=default;" edge="1" parent="WIyWlLk6GJQsqaUBKTNV-1" source="Trn8S8U_fDd8YShinlyO-343" target="Trn8S8U_fDd8YShinlyO-359">
          <mxGeometry relative="1" as="geometry" />
        </mxCell>
        <mxCell id="Trn8S8U_fDd8YShinlyO-363" style="edgeStyle=orthogonalEdgeStyle;rounded=0;orthogonalLoop=1;jettySize=auto;html=1;exitX=0.5;exitY=0;exitDx=0;exitDy=0;entryX=0;entryY=0.5;entryDx=0;entryDy=0;fontFamily=Helvetica;fontSize=12;fontColor=default;labelBackgroundColor=default;" edge="1" parent="WIyWlLk6GJQsqaUBKTNV-1" source="Trn8S8U_fDd8YShinlyO-361" target="Trn8S8U_fDd8YShinlyO-347">
          <mxGeometry relative="1" as="geometry">
            <Array as="points">
              <mxPoint x="2573" y="-610" />
            </Array>
          </mxGeometry>
        </mxCell>
        <mxCell id="Trn8S8U_fDd8YShinlyO-361" value="&quot;로그인에 실패했습니다.&amp;nbsp;&lt;div&gt;아이디 또는 비밀번호를 확인해주세요..&quot;&lt;div&gt;출력&lt;/div&gt;&lt;/div&gt;" style="shape=document;whiteSpace=wrap;html=1;boundedLbl=1;strokeColor=default;align=center;verticalAlign=middle;fontFamily=Helvetica;fontSize=12;fontColor=default;labelBackgroundColor=default;fillColor=default;" vertex="1" parent="WIyWlLk6GJQsqaUBKTNV-1">
          <mxGeometry x="2458" y="-235" width="230" height="80" as="geometry" />
        </mxCell>
        <mxCell id="Trn8S8U_fDd8YShinlyO-362" value="No" style="edgeStyle=orthogonalEdgeStyle;rounded=0;orthogonalLoop=1;jettySize=auto;html=1;exitX=0;exitY=0.5;exitDx=0;exitDy=0;exitPerimeter=0;entryX=1;entryY=0.5;entryDx=0;entryDy=0;fontFamily=Helvetica;fontSize=12;fontColor=default;labelBackgroundColor=default;" edge="1" parent="WIyWlLk6GJQsqaUBKTNV-1" source="Trn8S8U_fDd8YShinlyO-359" target="Trn8S8U_fDd8YShinlyO-361">
          <mxGeometry relative="1" as="geometry">
            <mxPoint x="2770" y="-195" as="targetPoint" />
          </mxGeometry>
        </mxCell>
        <mxCell id="Trn8S8U_fDd8YShinlyO-390" style="edgeStyle=orthogonalEdgeStyle;rounded=0;orthogonalLoop=1;jettySize=auto;html=1;exitX=0;exitY=0.5;exitDx=0;exitDy=0;fontFamily=Helvetica;fontSize=12;fontColor=default;labelBackgroundColor=default;fillColor=#6a00ff;strokeColor=#3700CC;" edge="1" parent="WIyWlLk6GJQsqaUBKTNV-1" source="Trn8S8U_fDd8YShinlyO-367">
          <mxGeometry relative="1" as="geometry">
            <mxPoint x="1030" y="-920" as="targetPoint" />
            <Array as="points">
              <mxPoint x="1031" y="65" />
              <mxPoint x="1031" y="-920" />
            </Array>
          </mxGeometry>
        </mxCell>
        <mxCell id="Trn8S8U_fDd8YShinlyO-367" value="&quot;로그인 되었습니다&quot; 출력" style="shape=document;whiteSpace=wrap;html=1;boundedLbl=1;strokeColor=default;align=center;verticalAlign=middle;fontFamily=Helvetica;fontSize=12;fontColor=default;labelBackgroundColor=default;fillColor=default;" vertex="1" parent="WIyWlLk6GJQsqaUBKTNV-1">
          <mxGeometry x="2520" y="30" width="155.04" height="70" as="geometry" />
        </mxCell>
        <mxCell id="Trn8S8U_fDd8YShinlyO-368" value="장바구니 아이콘&lt;div&gt;활성화&lt;/div&gt;" style="shape=parallelogram;perimeter=parallelogramPerimeter;whiteSpace=wrap;html=1;fixedSize=1;strokeColor=default;align=center;verticalAlign=middle;fontFamily=Helvetica;fontSize=12;fontColor=default;labelBackgroundColor=default;fillColor=default;" vertex="1" parent="WIyWlLk6GJQsqaUBKTNV-1">
          <mxGeometry x="590" y="-730" width="140" height="60" as="geometry" />
        </mxCell>
        <mxCell id="Trn8S8U_fDd8YShinlyO-379" style="edgeStyle=orthogonalEdgeStyle;rounded=0;orthogonalLoop=1;jettySize=auto;html=1;exitX=0.5;exitY=1;exitDx=0;exitDy=0;entryX=0.5;entryY=0;entryDx=0;entryDy=0;fontFamily=Helvetica;fontSize=12;fontColor=default;labelBackgroundColor=default;" edge="1" parent="WIyWlLk6GJQsqaUBKTNV-1" source="Trn8S8U_fDd8YShinlyO-369" target="Trn8S8U_fDd8YShinlyO-378">
          <mxGeometry relative="1" as="geometry" />
        </mxCell>
        <mxCell id="Trn8S8U_fDd8YShinlyO-369" value="로그아웃 버튼&lt;div&gt;활성화&lt;/div&gt;" style="shape=parallelogram;perimeter=parallelogramPerimeter;whiteSpace=wrap;html=1;fixedSize=1;strokeColor=default;align=center;verticalAlign=middle;fontFamily=Helvetica;fontSize=12;fontColor=default;labelBackgroundColor=default;fillColor=default;" vertex="1" parent="WIyWlLk6GJQsqaUBKTNV-1">
          <mxGeometry x="420" y="-730" width="140" height="60" as="geometry" />
        </mxCell>
        <mxCell id="Trn8S8U_fDd8YShinlyO-370" value="&quot;&quot;사용자 이름&quot;님, 반갑습니다&quot;&lt;div&gt;출력&lt;/div&gt;" style="shape=document;whiteSpace=wrap;html=1;boundedLbl=1;strokeColor=default;align=center;verticalAlign=middle;fontFamily=Helvetica;fontSize=12;fontColor=default;labelBackgroundColor=default;fillColor=default;" vertex="1" parent="WIyWlLk6GJQsqaUBKTNV-1">
          <mxGeometry x="200" y="-740" width="180" height="80" as="geometry" />
        </mxCell>
        <mxCell id="Trn8S8U_fDd8YShinlyO-374" value="메뉴의&lt;div&gt;장바구니 아이콘 클릭&lt;/div&gt;" style="rounded=0;whiteSpace=wrap;html=1;strokeColor=default;align=center;verticalAlign=middle;fontFamily=Helvetica;fontSize=12;fontColor=default;labelBackgroundColor=default;fillColor=default;" vertex="1" parent="WIyWlLk6GJQsqaUBKTNV-1">
          <mxGeometry x="2251" y="1100" width="120" height="60" as="geometry" />
        </mxCell>
        <mxCell id="Trn8S8U_fDd8YShinlyO-375" style="edgeStyle=orthogonalEdgeStyle;rounded=0;orthogonalLoop=1;jettySize=auto;html=1;exitX=0.5;exitY=1;exitDx=0;exitDy=0;entryX=0.5;entryY=0;entryDx=0;entryDy=0;entryPerimeter=0;fontFamily=Helvetica;fontSize=12;fontColor=default;labelBackgroundColor=default;" edge="1" parent="WIyWlLk6GJQsqaUBKTNV-1" source="Trn8S8U_fDd8YShinlyO-374" target="Trn8S8U_fDd8YShinlyO-241">
          <mxGeometry relative="1" as="geometry" />
        </mxCell>
        <mxCell id="Trn8S8U_fDd8YShinlyO-380" style="edgeStyle=orthogonalEdgeStyle;rounded=0;orthogonalLoop=1;jettySize=auto;html=1;exitX=1;exitY=0.5;exitDx=0;exitDy=0;fontFamily=Helvetica;fontSize=12;fontColor=default;labelBackgroundColor=default;fillColor=#f8cecc;strokeColor=#b85450;" edge="1" parent="WIyWlLk6GJQsqaUBKTNV-1" source="Trn8S8U_fDd8YShinlyO-378">
          <mxGeometry relative="1" as="geometry">
            <mxPoint x="1410" y="-930" as="targetPoint" />
            <Array as="points">
              <mxPoint x="550" y="-620" />
              <mxPoint x="1410" y="-620" />
              <mxPoint x="1410" y="-930" />
            </Array>
          </mxGeometry>
        </mxCell>
        <mxCell id="Trn8S8U_fDd8YShinlyO-378" value="로그아웃 버튼 클릭" style="rounded=0;whiteSpace=wrap;html=1;strokeColor=default;align=center;verticalAlign=middle;fontFamily=Helvetica;fontSize=12;fontColor=default;labelBackgroundColor=default;fillColor=default;" vertex="1" parent="WIyWlLk6GJQsqaUBKTNV-1">
          <mxGeometry x="430" y="-645" width="120" height="60" as="geometry" />
        </mxCell>
        <mxCell id="Trn8S8U_fDd8YShinlyO-385" value="No" style="edgeStyle=orthogonalEdgeStyle;rounded=0;orthogonalLoop=1;jettySize=auto;html=1;exitX=0;exitY=0.5;exitDx=0;exitDy=0;entryX=0.5;entryY=0;entryDx=0;entryDy=0;fontFamily=Helvetica;fontSize=12;fontColor=default;labelBackgroundColor=default;" edge="1" parent="WIyWlLk6GJQsqaUBKTNV-1" source="Trn8S8U_fDd8YShinlyO-383" target="Trn8S8U_fDd8YShinlyO-367">
          <mxGeometry x="-0.7645" relative="1" as="geometry">
            <mxPoint as="offset" />
          </mxGeometry>
        </mxCell>
        <mxCell id="Trn8S8U_fDd8YShinlyO-397" style="edgeStyle=orthogonalEdgeStyle;rounded=0;orthogonalLoop=1;jettySize=auto;html=1;exitX=0.5;exitY=1;exitDx=0;exitDy=0;entryX=0.5;entryY=0;entryDx=0;entryDy=0;fontFamily=Helvetica;fontSize=12;fontColor=default;labelBackgroundColor=default;" edge="1" parent="WIyWlLk6GJQsqaUBKTNV-1" source="Trn8S8U_fDd8YShinlyO-383" target="Trn8S8U_fDd8YShinlyO-391">
          <mxGeometry relative="1" as="geometry" />
        </mxCell>
        <mxCell id="Trn8S8U_fDd8YShinlyO-383" value="마스터 계정인가" style="rhombus;whiteSpace=wrap;html=1;strokeColor=default;align=center;verticalAlign=middle;fontFamily=Helvetica;fontSize=12;fontColor=default;labelBackgroundColor=default;fillColor=default;" vertex="1" parent="WIyWlLk6GJQsqaUBKTNV-1">
          <mxGeometry x="2795.04" y="-110" width="210" height="80" as="geometry" />
        </mxCell>
        <mxCell id="Trn8S8U_fDd8YShinlyO-399" style="edgeStyle=orthogonalEdgeStyle;rounded=0;orthogonalLoop=1;jettySize=auto;html=1;exitX=0.5;exitY=1;exitDx=0;exitDy=0;entryX=0.5;entryY=0;entryDx=0;entryDy=0;fontFamily=Helvetica;fontSize=12;fontColor=default;labelBackgroundColor=default;" edge="1" parent="WIyWlLk6GJQsqaUBKTNV-1" source="Trn8S8U_fDd8YShinlyO-388" target="Trn8S8U_fDd8YShinlyO-398">
          <mxGeometry relative="1" as="geometry" />
        </mxCell>
        <mxCell id="Trn8S8U_fDd8YShinlyO-388" value="관리자 메뉴 활성화" style="shape=parallelogram;perimeter=parallelogramPerimeter;whiteSpace=wrap;html=1;fixedSize=1;strokeColor=default;align=center;verticalAlign=middle;fontFamily=Helvetica;fontSize=12;fontColor=default;labelBackgroundColor=default;fillColor=default;" vertex="1" parent="WIyWlLk6GJQsqaUBKTNV-1">
          <mxGeometry x="2732.5" y="90" width="140" height="60" as="geometry" />
        </mxCell>
        <mxCell id="Trn8S8U_fDd8YShinlyO-395" style="edgeStyle=orthogonalEdgeStyle;rounded=0;orthogonalLoop=1;jettySize=auto;html=1;exitX=0.5;exitY=1;exitDx=0;exitDy=0;entryX=0.5;entryY=0;entryDx=0;entryDy=0;fontFamily=Helvetica;fontSize=12;fontColor=default;labelBackgroundColor=default;" edge="1" parent="WIyWlLk6GJQsqaUBKTNV-1" source="Trn8S8U_fDd8YShinlyO-391" target="Trn8S8U_fDd8YShinlyO-394">
          <mxGeometry relative="1" as="geometry" />
        </mxCell>
        <mxCell id="Trn8S8U_fDd8YShinlyO-391" value="로그아웃 버튼&lt;div&gt;활성화&lt;/div&gt;" style="shape=parallelogram;perimeter=parallelogramPerimeter;whiteSpace=wrap;html=1;fixedSize=1;strokeColor=default;align=center;verticalAlign=middle;fontFamily=Helvetica;fontSize=12;fontColor=default;labelBackgroundColor=default;fillColor=default;" vertex="1" parent="WIyWlLk6GJQsqaUBKTNV-1">
          <mxGeometry x="2910" y="90" width="140" height="60" as="geometry" />
        </mxCell>
        <mxCell id="Trn8S8U_fDd8YShinlyO-392" style="edgeStyle=orthogonalEdgeStyle;rounded=0;orthogonalLoop=1;jettySize=auto;html=1;exitX=0.5;exitY=1;exitDx=0;exitDy=0;fontFamily=Helvetica;fontSize=12;fontColor=default;labelBackgroundColor=default;" edge="1" parent="WIyWlLk6GJQsqaUBKTNV-1" source="Trn8S8U_fDd8YShinlyO-383" target="Trn8S8U_fDd8YShinlyO-383">
          <mxGeometry relative="1" as="geometry" />
        </mxCell>
        <mxCell id="Trn8S8U_fDd8YShinlyO-394" value="로그아웃 버튼 클릭" style="rounded=0;whiteSpace=wrap;html=1;strokeColor=default;align=center;verticalAlign=middle;fontFamily=Helvetica;fontSize=12;fontColor=default;labelBackgroundColor=default;fillColor=default;" vertex="1" parent="WIyWlLk6GJQsqaUBKTNV-1">
          <mxGeometry x="2920" y="190" width="120" height="60" as="geometry" />
        </mxCell>
        <mxCell id="Trn8S8U_fDd8YShinlyO-396" style="edgeStyle=orthogonalEdgeStyle;rounded=0;orthogonalLoop=1;jettySize=auto;html=1;exitX=0;exitY=0.5;exitDx=0;exitDy=0;fontFamily=Helvetica;fontSize=12;fontColor=default;labelBackgroundColor=default;fillColor=#f8cecc;strokeColor=#b85450;" edge="1" parent="WIyWlLk6GJQsqaUBKTNV-1" source="Trn8S8U_fDd8YShinlyO-394">
          <mxGeometry relative="1" as="geometry">
            <mxPoint x="1410" y="-930" as="targetPoint" />
            <mxPoint x="1980" y="460" as="sourcePoint" />
            <Array as="points">
              <mxPoint x="1410" y="220" />
            </Array>
          </mxGeometry>
        </mxCell>
        <mxCell id="Trn8S8U_fDd8YShinlyO-389" value="Yes" style="edgeStyle=orthogonalEdgeStyle;rounded=0;orthogonalLoop=1;jettySize=auto;html=1;exitX=0.5;exitY=1;exitDx=0;exitDy=0;entryX=0.5;entryY=0;entryDx=0;entryDy=0;fontFamily=Helvetica;fontSize=12;fontColor=default;labelBackgroundColor=default;" edge="1" parent="WIyWlLk6GJQsqaUBKTNV-1" source="Trn8S8U_fDd8YShinlyO-383" target="Trn8S8U_fDd8YShinlyO-388">
          <mxGeometry x="-0.8161" relative="1" as="geometry">
            <mxPoint as="offset" />
          </mxGeometry>
        </mxCell>
        <mxCell id="Trn8S8U_fDd8YShinlyO-398" value="관리자 메뉴&lt;div&gt;버튼 클릭&lt;/div&gt;" style="rounded=0;whiteSpace=wrap;html=1;strokeColor=default;align=center;verticalAlign=middle;fontFamily=Helvetica;fontSize=12;fontColor=default;labelBackgroundColor=default;fillColor=default;" vertex="1" parent="WIyWlLk6GJQsqaUBKTNV-1">
          <mxGeometry x="2742.5" y="260" width="120" height="60" as="geometry" />
        </mxCell>
      </root>
    </mxGraphModel>
  </diagram>
</mxfile>
